<?xml version="1.0" encoding="UTF-8" standalone="no"?>
<!-- Created with Inkscape (http://www.inkscape.org/) -->

<svg
   width="37.409618mm"
   height="7.8920279mm"
   viewBox="0 0 37.409618 7.8920279"
   version="1.1"
   id="svg1"
   inkscape:version="1.4.2 (1:1.4.2+202505120737+ebf0e940d0)"
   sodipodi:docname="logo.svg"
   xmlns:inkscape="http://www.inkscape.org/namespaces/inkscape"
   xmlns:sodipodi="http://sodipodi.sourceforge.net/DTD/sodipodi-0.dtd"
   xmlns="http://www.w3.org/2000/svg"
   xmlns:svg="http://www.w3.org/2000/svg">
  <sodipodi:namedview
     id="namedview1"
     pagecolor="#ffffff"
     bordercolor="#000000"
     borderopacity="0.25"
     inkscape:showpageshadow="2"
     inkscape:pageopacity="0.0"
     inkscape:pagecheckerboard="0"
     inkscape:deskcolor="#d1d1d1"
     inkscape:document-units="mm"
     inkscape:zoom="4.4400112"
     inkscape:cx="160.24734"
     inkscape:cy="43.130522"
     inkscape:window-width="1600"
     inkscape:window-height="831"
     inkscape:window-x="0"
     inkscape:window-y="0"
     inkscape:window-maximized="1"
     inkscape:current-layer="layer1" />
  <defs
     id="defs1">
    <g
       id="g8457">
      <g
         id="g8540">
        <path
           d="M 7.0625,-2.328125 C 7.078125,-2.375 7.109375,-2.4375 7.109375,-2.46875 c 0,0 0,-0.109375 -0.125,-0.109375 -0.09375,0 -0.109375,0.0625 -0.125,0.125 C 6.203125,-0.984375 5.84375,-0.3125 4.140625,-0.3125 H 2.6875 c -0.140625,0 -0.171875,0 -0.21875,0 -0.109375,-0.015625 -0.140625,-0.03125 -0.140625,-0.109375 0,-0.03125 0,-0.046875 0.046875,-0.21875 L 3.0625,-3.375 h 0.984375 c 0.84375,0 0.84375,0.21875 0.84375,0.46875 0,0.0625 0,0.1875 -0.0625,0.484375 C 4.8125,-2.375 4.796875,-2.34375 4.796875,-2.3125 c 0,0.046875 0.03125,0.109375 0.125,0.109375 C 5,-2.203125 5.03125,-2.25 5.078125,-2.40625 l 0.5625,-2.328125 c 0,-0.0625 -0.046875,-0.109375 -0.125,-0.109375 -0.078125,0 -0.109375,0.0625 -0.125,0.171875 -0.21875,0.765625 -0.390625,1 -1.3125,1 h -0.9375 l 0.59375,-2.40625 C 3.828125,-6.4375 3.84375,-6.46875 4.28125,-6.46875 H 5.6875 c 1.203125,0 1.515625,0.28125 1.515625,1.109375 0,0.234375 0,0.25 -0.046875,0.53125 0,0.046875 -0.015625,0.125 -0.015625,0.171875 0,0.046875 0.03125,0.125 0.125,0.125 0.109375,0 0.125,-0.0625 0.140625,-0.25 L 7.609375,-6.515625 C 7.640625,-6.78125 7.59375,-6.78125 7.34375,-6.78125 H 2.296875 c -0.1875,0 -0.296875,0 -0.296875,0.203125 0,0.109375 0.09375,0.109375 0.28125,0.109375 0.375,0 0.65625,0 0.65625,0.171875 0,0.046875 0,0.0625 -0.0625,0.25 L 1.5625,-0.78125 c -0.09375,0.390625 -0.109375,0.46875 -0.90625,0.46875 -0.171875,0 -0.28125,0 -0.28125,0.1875 C 0.375,0 0.46875,0 0.65625,0 h 5.171875 c 0.234375,0 0.25,-0.015625 0.3125,-0.171875 z m 0,0"
           id="path4304" />
      </g>
      <g
         id="g1547">
        <path
           d="M 9.234375,-6.046875 C 9.328125,-6.40625 9.34375,-6.5 10.09375,-6.5 c 0.21875,0 0.3125,0 0.3125,-0.203125 0,-0.109375 -0.09375,-0.109375 -0.265625,-0.109375 h -1.3125 c -0.265625,0 -0.28125,0 -0.390625,0.1875 L 4.796875,-0.9375 4.015625,-6.578125 C 3.984375,-6.8125 3.96875,-6.8125 3.703125,-6.8125 H 2.34375 c -0.1875,0 -0.296875,0 -0.296875,0.1875 0,0.125 0.09375,0.125 0.28125,0.125 0.140625,0 0.3125,0.015625 0.4375,0.015625 0.15625,0.03125 0.21875,0.046875 0.21875,0.171875 0,0.03125 -0.015625,0.0625 -0.046875,0.1875 l -1.265625,5.0625 c -0.09375,0.40625 -0.265625,0.71875 -1.078125,0.75 -0.046875,0 -0.171875,0.015625 -0.171875,0.1875 0,0.09375 0.0625,0.125 0.140625,0.125 0.3125,0 0.65625,-0.03125 1,-0.03125 C 1.890625,-0.03125 2.25,0 2.578125,0 c 0.046875,0 0.1875,0 0.1875,-0.203125 0,-0.109375 -0.109375,-0.109375 -0.1875,-0.109375 -0.5625,0 -0.671875,-0.203125 -0.671875,-0.4375 0,-0.0625 0,-0.125 0.03125,-0.234375 L 3.296875,-6.40625 H 3.3125 l 0.859375,6.171875 C 4.1875,-0.109375 4.203125,0 4.3125,0 4.421875,0 4.484375,-0.109375 4.53125,-0.171875 l 4.03125,-6.3125 h 0.015625 l -1.4375,5.703125 c -0.09375,0.390625 -0.109375,0.46875 -0.90625,0.46875 -0.15625,0 -0.265625,0 -0.265625,0.1875 C 5.96875,0 6.078125,0 6.109375,0 6.390625,0 7.0625,-0.03125 7.34375,-0.03125 7.75,-0.03125 8.1875,0 8.59375,0 8.65625,0 8.78125,0 8.78125,-0.203125 8.78125,-0.3125 8.6875,-0.3125 8.5,-0.3125 c -0.359375,0 -0.640625,0 -0.640625,-0.171875 0,-0.046875 0,-0.0625 0.046875,-0.25 z m 0,0"
           id="path7973" />
      </g>
    </g>
    <g
       id="g7801">
      <g
         id="g6411">
        <path
           d="m 4.203125,5.328125 -3.546875,4.375 C 0.578125,9.796875 0.5625,9.8125 0.5625,9.859375 c 0,0.109375 0.09375,0.109375 0.28125,0.109375 h 8.25 L 9.953125,7.484375 h -0.25 C 9.453125,8.234375 8.796875,8.84375 7.9375,9.125 7.78125,9.1875 7.09375,9.421875 5.625,9.421875 H 1.390625 l 3.46875,-4.28125 C 4.921875,5.046875 4.9375,5.03125 4.9375,4.984375 4.9375,4.9375 4.9375,4.9375 4.875,4.84375 L 1.640625,0.40625 h 3.9375 c 1.140625,0 3.4375,0.0625 4.125,1.921875 h 0.25 L 9.09375,0 h -8.25 C 0.5625,0 0.5625,0.015625 0.5625,0.3125 Z m 0,0"
           id="path7460" />
      </g>
      <g
         id="g8196">
        <path
           d="M 9.234375,-6.046875 C 9.328125,-6.40625 9.34375,-6.5 10.09375,-6.5 c 0.21875,0 0.3125,0 0.3125,-0.203125 0,-0.109375 -0.09375,-0.109375 -0.265625,-0.109375 h -1.3125 c -0.265625,0 -0.28125,0 -0.390625,0.1875 L 4.796875,-0.9375 4.015625,-6.578125 C 3.984375,-6.8125 3.96875,-6.8125 3.703125,-6.8125 H 2.34375 c -0.1875,0 -0.296875,0 -0.296875,0.1875 0,0.125 0.09375,0.125 0.28125,0.125 0.140625,0 0.3125,0.015625 0.4375,0.015625 0.15625,0.03125 0.21875,0.046875 0.21875,0.171875 0,0.03125 -0.015625,0.0625 -0.046875,0.1875 l -1.265625,5.0625 c -0.09375,0.40625 -0.265625,0.71875 -1.078125,0.75 -0.046875,0 -0.171875,0.015625 -0.171875,0.1875 0,0.09375 0.0625,0.125 0.140625,0.125 0.3125,0 0.65625,-0.03125 1,-0.03125 C 1.890625,-0.03125 2.25,0 2.578125,0 c 0.046875,0 0.1875,0 0.1875,-0.203125 0,-0.109375 -0.109375,-0.109375 -0.1875,-0.109375 -0.5625,0 -0.671875,-0.203125 -0.671875,-0.4375 0,-0.0625 0,-0.125 0.03125,-0.234375 L 3.296875,-6.40625 H 3.3125 l 0.859375,6.171875 C 4.1875,-0.109375 4.203125,0 4.3125,0 4.421875,0 4.484375,-0.109375 4.53125,-0.171875 l 4.03125,-6.3125 h 0.015625 l -1.4375,5.703125 c -0.09375,0.390625 -0.109375,0.46875 -0.90625,0.46875 -0.15625,0 -0.265625,0 -0.265625,0.1875 C 5.96875,0 6.078125,0 6.109375,0 6.390625,0 7.0625,-0.03125 7.34375,-0.03125 7.75,-0.03125 8.1875,0 8.59375,0 8.65625,0 8.78125,0 8.78125,-0.203125 8.78125,-0.3125 8.6875,-0.3125 8.5,-0.3125 c -0.359375,0 -0.640625,0 -0.640625,-0.171875 0,-0.046875 0,-0.0625 0.046875,-0.25 z m 0,0"
           id="path5288" />
      </g>
    </g>
    <g
       id="g5500">
      <g
         id="g8281">
        <path
           d="m 10.0625,12.765625 -8.484375,10.5 c -0.1875,0.234375 -0.21875,0.28125 -0.21875,0.375 0,0.265625 0.21875,0.265625 0.65625,0.265625 h 19.8125 L 23.875,17.953125 h -0.59375 c -0.59375,1.796875 -2.203125,3.25 -4.234375,3.9375 -0.375,0.125 -2.03125,0.703125 -5.546875,0.703125 H 3.34375 l 8.296875,-10.265625 c 0.171875,-0.203125 0.21875,-0.28125 0.21875,-0.375 0,-0.09375 -0.03125,-0.125 -0.171875,-0.328125 L 3.921875,0.953125 h 9.46875 c 2.71875,0 8.21875,0.171875 9.890625,4.640625 H 23.875 L 21.828125,0 H 2.015625 C 1.359375,0 1.34375,0.03125 1.34375,0.765625 Z m 0,0"
           id="path6275" />
      </g>
      <g
         id="g5785">
        <path
           d="m 22.5,-15.109375 c 0.21875,-0.84375 0.28125,-1.09375 2.03125,-1.09375 0.46875,0 0.703125,0 0.703125,-0.46875 0,-0.25 -0.1875,-0.25 -0.65625,-0.25 h -2.96875 c -0.625,0 -0.640625,0.01563 -0.921875,0.421875 L 11.640625,-2.203125 9.78125,-16.375 C 9.71875,-16.921875 9.6875,-16.921875 9.046875,-16.921875 H 5.96875 c -0.46875,0 -0.6875,0 -0.6875,0.46875 0,0.25 0.21875,0.25 0.59375,0.25 1.515625,0 1.515625,0.1875 1.515625,0.46875 0,0.04687 0,0.203125 -0.109375,0.5625 L 4.109375,-2.53125 C 3.8125,-1.34375 3.25,-0.796875 1.59375,-0.71875 c -0.078125,0 -0.375,0.03125 -0.375,0.453125 C 1.21875,0 1.4375,0 1.53125,0 c 0.5,0 1.765625,-0.046875 2.265625,-0.046875 h 1.1875 C 5.328125,-0.046875 5.75,0 6.09375,0 c 0.171875,0 0.453125,0 0.453125,-0.46875 0,-0.21875 -0.25,-0.25 -0.359375,-0.25 C 5.375,-0.75 4.578125,-0.890625 4.578125,-1.78125 c 0,-0.25 0,-0.28125 0.109375,-0.625 L 8.109375,-16.0625 H 8.125 l 2.0625,15.390625 C 10.265625,-0.078125 10.28125,0 10.5,0 c 0.28125,0 0.40625,-0.203125 0.53125,-0.421875 L 20.984375,-16.1875 h 0.03125 l -3.59375,14.359375 c -0.21875,0.859375 -0.265625,1.109375 -2.015625,1.109375 -0.46875,0 -0.71875,0 -0.71875,0.453125 C 14.6875,0 14.921875,0 15.0625,0 c 0.421875,0 0.921875,-0.046875 1.34375,-0.046875 h 2.921875 C 19.75,-0.046875 20.265625,0 20.6875,0 c 0.203125,0 0.46875,0 0.46875,-0.46875 0,-0.25 -0.21875,-0.25 -0.59375,-0.25 -1.5,0 -1.5,-0.203125 -1.5,-0.453125 0,-0.015625 0,-0.1875 0.04687,-0.390625 z m 0,0"
           id="path411" />
      </g>
    </g>
    <g
       id="g9378">
      <g
         id="g3116">
        <path
           d="m 10.0625,12.765625 -8.484375,10.5 c -0.1875,0.234375 -0.21875,0.28125 -0.21875,0.375 0,0.265625 0.21875,0.265625 0.65625,0.265625 h 19.8125 L 23.875,17.953125 h -0.59375 c -0.59375,1.796875 -2.203125,3.25 -4.234375,3.9375 -0.375,0.125 -2.03125,0.703125 -5.546875,0.703125 H 3.34375 l 8.296875,-10.265625 c 0.171875,-0.203125 0.21875,-0.28125 0.21875,-0.375 0,-0.09375 -0.03125,-0.125 -0.171875,-0.328125 L 3.921875,0.953125 h 9.46875 c 2.71875,0 8.21875,0.171875 9.890625,4.640625 H 23.875 L 21.828125,0 H 2.015625 C 1.359375,0 1.34375,0.03125 1.34375,0.765625 Z m 0,0"
           id="path3707" />
      </g>
      <g
         id="g6208">
        <path
           d="m 22.5,-15.109375 c 0.21875,-0.84375 0.28125,-1.09375 2.03125,-1.09375 0.46875,0 0.703125,0 0.703125,-0.46875 0,-0.25 -0.1875,-0.25 -0.65625,-0.25 h -2.96875 c -0.625,0 -0.640625,0.01563 -0.921875,0.421875 L 11.640625,-2.203125 9.78125,-16.375 C 9.71875,-16.921875 9.6875,-16.921875 9.046875,-16.921875 H 5.96875 c -0.46875,0 -0.6875,0 -0.6875,0.46875 0,0.25 0.21875,0.25 0.59375,0.25 1.515625,0 1.515625,0.1875 1.515625,0.46875 0,0.04687 0,0.203125 -0.109375,0.5625 L 4.109375,-2.53125 C 3.8125,-1.34375 3.25,-0.796875 1.59375,-0.71875 c -0.078125,0 -0.375,0.03125 -0.375,0.453125 C 1.21875,0 1.4375,0 1.53125,0 c 0.5,0 1.765625,-0.046875 2.265625,-0.046875 h 1.1875 C 5.328125,-0.046875 5.75,0 6.09375,0 c 0.171875,0 0.453125,0 0.453125,-0.46875 0,-0.21875 -0.25,-0.25 -0.359375,-0.25 C 5.375,-0.75 4.578125,-0.890625 4.578125,-1.78125 c 0,-0.25 0,-0.28125 0.109375,-0.625 L 8.109375,-16.0625 H 8.125 l 2.0625,15.390625 C 10.265625,-0.078125 10.28125,0 10.5,0 c 0.28125,0 0.40625,-0.203125 0.53125,-0.421875 L 20.984375,-16.1875 h 0.03125 l -3.59375,14.359375 c -0.21875,0.859375 -0.265625,1.109375 -2.015625,1.109375 -0.46875,0 -0.71875,0 -0.71875,0.453125 C 14.6875,0 14.921875,0 15.0625,0 c 0.421875,0 0.921875,-0.046875 1.34375,-0.046875 h 2.921875 C 19.75,-0.046875 20.265625,0 20.6875,0 c 0.203125,0 0.46875,0 0.46875,-0.46875 0,-0.25 -0.21875,-0.25 -0.59375,-0.25 -1.5,0 -1.5,-0.203125 -1.5,-0.453125 0,-0.015625 0,-0.1875 0.04687,-0.390625 z m 0,0"
           id="path2173" />
      </g>
      <g
         id="g4063">
        <path
           d="m 17.984375,-10.859375 c 0,-4.078125 -2.671875,-6.59375 -6.140625,-6.59375 -5.296875,0 -10.65625,5.703125 -10.65625,11.4375 0,3.890625 2.578125,6.53125 6.171875,6.53125 5.203125,0 10.625,-5.421875 10.625,-11.375 z m -10.46875,10.8125 c -2.03125,0 -4.1875,-1.484375 -4.1875,-5.359375 0,-2.25 0.8125,-5.9375 2.84375,-8.421875 1.8125,-2.1875 3.890625,-3.078125 5.546875,-3.078125 2.1875,0 4.296875,1.59375 4.296875,5.15625 0,2.203125 -0.953125,5.65625 -2.609375,8.015625 -1.8125,2.515625 -4.0625,3.6875 -5.890625,3.6875 z m 0,0"
           id="path1644" />
      </g>
      <g
         id="g9187">
        <path
           d="m 18.515625,-17.21875 c 0,-0.234375 -0.171875,-0.234375 -0.234375,-0.234375 -0.04687,0 -0.140625,0 -0.34375,0.25 l -1.703125,2.09375 c -0.875,-1.5 -2.234375,-2.34375 -4.09375,-2.34375 -5.34375,0 -10.90625,5.4375 -10.90625,11.265625 0,4.125 2.90625,6.703125 6.515625,6.703125 1.984375,0 3.71875,-0.84375 5.15625,-2.046875 2.15625,-1.8125 2.8125,-4.21875 2.8125,-4.421875 0,-0.21875 -0.203125,-0.21875 -0.28125,-0.21875 -0.21875,0 -0.25,0.15625 -0.296875,0.25 C 14,-2.0625 10.65625,-0.203125 8.171875,-0.203125 c -2.625,0 -4.90625,-1.6875 -4.90625,-5.203125 0,-0.78125 0.25,-5.09375 3.046875,-8.34375 1.375,-1.59375 3.703125,-2.984375 6.046875,-2.984375 2.734375,0 3.953125,2.265625 3.953125,4.796875 0,0.640625 -0.07813,1.1875 -0.07813,1.28125 0,0.21875 0.25,0.21875 0.3125,0.21875 0.28125,0 0.296875,-0.01563 0.40625,-0.46875 z m 0,0"
           id="path4678" />
      </g>
      <g
         id="g1942">
        <path
           d="m 10.0625,-17.09375 c -0.203125,-0.421875 -0.296875,-0.421875 -0.5,-0.421875 -0.296875,0 -0.3125,0.04687 -0.5,0.390625 L 1.046875,-0.421875 C 1.015625,-0.375 0.921875,-0.15625 0.921875,-0.125 0.921875,-0.03125 0.9375,0 1.390625,0 H 17.71875 c 0.453125,0 0.46875,-0.03125 0.46875,-0.125 0,-0.03125 -0.09375,-0.25 -0.125,-0.296875 z m -1.109375,1.453125 6.859375,14.25 h -13.75 z m 0,0"
           id="path6563" />
      </g>
    </g>
    <g
       id="g394">
      <g
         id="g9891">
        <path
           d="M 7.21875,-5.625 C 7.578125,-5.625 8,-5.625 8,-6.015625 8,-6.34375 7.75,-6.34375 7.3125,-6.34375 H 3.296875 c 0.625,-2.25 2.078125,-3.625 4.28125,-3.625 h 0.71875 c 0.421875,0 0.796875,0 0.796875,-0.390625 0,-0.328125 -0.265625,-0.328125 -0.71875,-0.328125 H 7.53125 c -3.046875,0 -6.390625,2.4375 -6.390625,6.328125 0,2.75 1.859375,4.609375 4.3125,4.609375 1.578125,0 3.140625,-1 3.140625,-1.234375 0,-0.15625 -0.0625,-0.296875 -0.21875,-0.296875 -0.078125,0 -0.125,0.015625 -0.25,0.109375 C 7.1875,-0.546875 6.265625,-0.25 5.53125,-0.25 c -1.3125,0 -2.703125,-0.859375 -2.703125,-3.265625 0,-0.46875 0.046875,-1.125 0.265625,-2.109375 z m 0,0"
           id="path3443" />
      </g>
      <g
         id="g6571">
        <path
           d="m 22.5,-15.109375 c 0.21875,-0.84375 0.28125,-1.09375 2.03125,-1.09375 0.46875,0 0.703125,0 0.703125,-0.46875 0,-0.25 -0.1875,-0.25 -0.65625,-0.25 h -2.96875 c -0.625,0 -0.640625,0.01563 -0.921875,0.421875 L 11.640625,-2.203125 9.78125,-16.375 C 9.71875,-16.921875 9.6875,-16.921875 9.046875,-16.921875 H 5.96875 c -0.46875,0 -0.6875,0 -0.6875,0.46875 0,0.25 0.21875,0.25 0.59375,0.25 1.515625,0 1.515625,0.1875 1.515625,0.46875 0,0.04687 0,0.203125 -0.109375,0.5625 L 4.109375,-2.53125 C 3.8125,-1.34375 3.25,-0.796875 1.59375,-0.71875 c -0.078125,0 -0.375,0.03125 -0.375,0.453125 C 1.21875,0 1.4375,0 1.53125,0 c 0.5,0 1.765625,-0.046875 2.265625,-0.046875 h 1.1875 C 5.328125,-0.046875 5.75,0 6.09375,0 c 0.171875,0 0.453125,0 0.453125,-0.46875 0,-0.21875 -0.25,-0.25 -0.359375,-0.25 C 5.375,-0.75 4.578125,-0.890625 4.578125,-1.78125 c 0,-0.25 0,-0.28125 0.109375,-0.625 L 8.109375,-16.0625 H 8.125 l 2.0625,15.390625 C 10.265625,-0.078125 10.28125,0 10.5,0 c 0.28125,0 0.40625,-0.203125 0.53125,-0.421875 L 20.984375,-16.1875 h 0.03125 l -3.59375,14.359375 c -0.21875,0.859375 -0.265625,1.109375 -2.015625,1.109375 -0.46875,0 -0.71875,0 -0.71875,0.453125 C 14.6875,0 14.921875,0 15.0625,0 c 0.421875,0 0.921875,-0.046875 1.34375,-0.046875 h 2.921875 C 19.75,-0.046875 20.265625,0 20.6875,0 c 0.203125,0 0.46875,0 0.46875,-0.46875 0,-0.25 -0.21875,-0.25 -0.59375,-0.25 -1.5,0 -1.5,-0.203125 -1.5,-0.453125 0,-0.015625 0,-0.1875 0.04687,-0.390625 z m 0,0"
           id="path7713" />
      </g>
      <g
         id="g2782">
        <path
           d="m 6.4375,-10.796875 c -3.171875,0.765625 -5.453125,4.0625 -5.453125,6.953125 0,2.65625 1.796875,4.140625 3.78125,4.140625 2.921875,0 4.90625,-4.015625 4.90625,-7.3125 C 9.671875,-9.25 8.625,-10.609375 8,-11.421875 7.09375,-12.59375 5.59375,-14.5 5.59375,-15.6875 c 0,-0.421875 0.328125,-1.15625 1.421875,-1.15625 0.765625,0 1.234375,0.265625 1.984375,0.6875 0.21875,0.140625 0.78125,0.46875 1.109375,0.46875 C 10.625,-15.6875 11,-16.203125 11,-16.609375 c 0,-0.46875 -0.375,-0.546875 -1.234375,-0.734375 -1.171875,-0.25 -1.515625,-0.25 -1.9375,-0.25 -0.421875,0 -2.84375,0 -2.84375,2.53125 0,1.203125 0.609375,2.625 1.453125,4.265625 z m 0.28125,0.46875 c 0.9375,1.953125 1.3125,2.703125 1.3125,4.3125 0,1.921875 -1.046875,5.8125 -3.25,5.8125 -0.96875,0 -2.359375,-0.640625 -2.359375,-2.9375 0,-1.625 0.921875,-6.296875 4.296875,-7.1875 z m 0,0"
           id="path8457" />
      </g>
      <g
         id="g8882">
        <path
           d="m 17.984375,-10.859375 c 0,-4.078125 -2.671875,-6.59375 -6.140625,-6.59375 -5.296875,0 -10.65625,5.703125 -10.65625,11.4375 0,3.890625 2.578125,6.53125 6.171875,6.53125 5.203125,0 10.625,-5.421875 10.625,-11.375 z m -10.46875,10.8125 c -2.03125,0 -4.1875,-1.484375 -4.1875,-5.359375 0,-2.25 0.8125,-5.9375 2.84375,-8.421875 1.8125,-2.1875 3.890625,-3.078125 5.546875,-3.078125 2.1875,0 4.296875,1.59375 4.296875,5.15625 0,2.203125 -0.953125,5.65625 -2.609375,8.015625 -1.8125,2.515625 -4.0625,3.6875 -5.890625,3.6875 z m 0,0"
           id="path2123" />
      </g>
      <g
         id="g6774">
        <path
           d="m 18.515625,-17.21875 c 0,-0.234375 -0.171875,-0.234375 -0.234375,-0.234375 -0.04687,0 -0.140625,0 -0.34375,0.25 l -1.703125,2.09375 c -0.875,-1.5 -2.234375,-2.34375 -4.09375,-2.34375 -5.34375,0 -10.90625,5.4375 -10.90625,11.265625 0,4.125 2.90625,6.703125 6.515625,6.703125 1.984375,0 3.71875,-0.84375 5.15625,-2.046875 2.15625,-1.8125 2.8125,-4.21875 2.8125,-4.421875 0,-0.21875 -0.203125,-0.21875 -0.28125,-0.21875 -0.21875,0 -0.25,0.15625 -0.296875,0.25 C 14,-2.0625 10.65625,-0.203125 8.171875,-0.203125 c -2.625,0 -4.90625,-1.6875 -4.90625,-5.203125 0,-0.78125 0.25,-5.09375 3.046875,-8.34375 1.375,-1.59375 3.703125,-2.984375 6.046875,-2.984375 2.734375,0 3.953125,2.265625 3.953125,4.796875 0,0.640625 -0.07813,1.1875 -0.07813,1.28125 0,0.21875 0.25,0.21875 0.3125,0.21875 0.28125,0 0.296875,-0.01563 0.40625,-0.46875 z m 0,0"
           id="path8441" />
      </g>
    </g>
    <g
       id="g2495">
      <g
         id="g9832">
        <path
           d="M 7.21875,-5.625 C 7.578125,-5.625 8,-5.625 8,-6.015625 8,-6.34375 7.75,-6.34375 7.3125,-6.34375 H 3.296875 c 0.625,-2.25 2.078125,-3.625 4.28125,-3.625 h 0.71875 c 0.421875,0 0.796875,0 0.796875,-0.390625 0,-0.328125 -0.265625,-0.328125 -0.71875,-0.328125 H 7.53125 c -3.046875,0 -6.390625,2.4375 -6.390625,6.328125 0,2.75 1.859375,4.609375 4.3125,4.609375 1.578125,0 3.140625,-1 3.140625,-1.234375 0,-0.15625 -0.0625,-0.296875 -0.21875,-0.296875 -0.078125,0 -0.125,0.015625 -0.25,0.109375 C 7.1875,-0.546875 6.265625,-0.25 5.53125,-0.25 c -1.3125,0 -2.703125,-0.859375 -2.703125,-3.265625 0,-0.46875 0.046875,-1.125 0.265625,-2.109375 z m 0,0"
           id="path3680" />
      </g>
      <g
         id="g9518">
        <path
           d="M 3.5625,-0.546875 C 4.1875,0.03125 5.109375,0.25 5.953125,0.25 7.53125,0.25 8.625,-0.8125 9.1875,-1.59375 9.4375,-0.265625 10.484375,0.25 11.34375,0.25 c 0.75,0 1.34375,-0.453125 1.796875,-1.34375 C 13.53125,-1.9375 13.875,-3.4375 13.875,-3.546875 c 0,-0.125 -0.09375,-0.21875 -0.25,-0.21875 -0.21875,0 -0.25,0.125 -0.34375,0.5 C 12.90625,-1.8125 12.4375,-0.25 11.421875,-0.25 c -0.71875,0 -0.765625,-0.640625 -0.765625,-1.140625 0,-0.5625 0.21875,-1.453125 0.390625,-2.203125 L 11.75,-6.265625 c 0.09375,-0.46875 0.375,-1.59375 0.484375,-2.03125 0.15625,-0.59375 0.421875,-1.671875 0.421875,-1.765625 0,-0.375 -0.296875,-0.625 -0.65625,-0.625 -0.234375,0 -0.75,0.109375 -0.953125,0.84375 L 9.3125,-2.953125 C 9.1875,-2.453125 9.1875,-2.40625 8.875,-2 8.578125,-1.59375 7.609375,-0.25 6.046875,-0.25 4.65625,-0.25 4.21875,-1.265625 4.21875,-2.421875 c 0,-0.71875 0.21875,-1.59375 0.3125,-2.015625 l 1.125,-4.453125 c 0.125,-0.484375 0.3125,-1.265625 0.3125,-1.421875 0,-0.390625 -0.3125,-0.609375 -0.640625,-0.609375 -0.21875,0 -0.765625,0.0625 -0.96875,0.859375 L 0.765625,4.28125 C 0.75,4.40625 0.6875,4.5625 0.6875,4.703125 c 0,0.375 0.296875,0.625 0.671875,0.625 0.71875,0 0.875,-0.5625 1.046875,-1.265625 z m 0,0"
           id="path6588" />
      </g>
      <g
         id="g7983">
        <path
           d="m 6.4375,-10.796875 c -3.171875,0.765625 -5.453125,4.0625 -5.453125,6.953125 0,2.65625 1.796875,4.140625 3.78125,4.140625 2.921875,0 4.90625,-4.015625 4.90625,-7.3125 C 9.671875,-9.25 8.625,-10.609375 8,-11.421875 7.09375,-12.59375 5.59375,-14.5 5.59375,-15.6875 c 0,-0.421875 0.328125,-1.15625 1.421875,-1.15625 0.765625,0 1.234375,0.265625 1.984375,0.6875 0.21875,0.140625 0.78125,0.46875 1.109375,0.46875 C 10.625,-15.6875 11,-16.203125 11,-16.609375 c 0,-0.46875 -0.375,-0.546875 -1.234375,-0.734375 -1.171875,-0.25 -1.515625,-0.25 -1.9375,-0.25 -0.421875,0 -2.84375,0 -2.84375,2.53125 0,1.203125 0.609375,2.625 1.453125,4.265625 z m 0.28125,0.46875 c 0.9375,1.953125 1.3125,2.703125 1.3125,4.3125 0,1.921875 -1.046875,5.8125 -3.25,5.8125 -0.96875,0 -2.359375,-0.640625 -2.359375,-2.9375 0,-1.625 0.921875,-6.296875 4.296875,-7.1875 z m 0,0"
           id="path3473" />
      </g>
      <g
         id="g6357">
        <path
           d="m 17.984375,-10.859375 c 0,-4.078125 -2.671875,-6.59375 -6.140625,-6.59375 -5.296875,0 -10.65625,5.703125 -10.65625,11.4375 0,3.890625 2.578125,6.53125 6.171875,6.53125 5.203125,0 10.625,-5.421875 10.625,-11.375 z m -10.46875,10.8125 c -2.03125,0 -4.1875,-1.484375 -4.1875,-5.359375 0,-2.25 0.8125,-5.9375 2.84375,-8.421875 1.8125,-2.1875 3.890625,-3.078125 5.546875,-3.078125 2.1875,0 4.296875,1.59375 4.296875,5.15625 0,2.203125 -0.953125,5.65625 -2.609375,8.015625 -1.8125,2.515625 -4.0625,3.6875 -5.890625,3.6875 z m 0,0"
           id="path1545" />
      </g>
      <g
         id="g1554">
        <path
           d="m 18.515625,-17.21875 c 0,-0.234375 -0.171875,-0.234375 -0.234375,-0.234375 -0.04687,0 -0.140625,0 -0.34375,0.25 l -1.703125,2.09375 c -0.875,-1.5 -2.234375,-2.34375 -4.09375,-2.34375 -5.34375,0 -10.90625,5.4375 -10.90625,11.265625 0,4.125 2.90625,6.703125 6.515625,6.703125 1.984375,0 3.71875,-0.84375 5.15625,-2.046875 2.15625,-1.8125 2.8125,-4.21875 2.8125,-4.421875 0,-0.21875 -0.203125,-0.21875 -0.28125,-0.21875 -0.21875,0 -0.25,0.15625 -0.296875,0.25 C 14,-2.0625 10.65625,-0.203125 8.171875,-0.203125 c -2.625,0 -4.90625,-1.6875 -4.90625,-5.203125 0,-0.78125 0.25,-5.09375 3.046875,-8.34375 1.375,-1.59375 3.703125,-2.984375 6.046875,-2.984375 2.734375,0 3.953125,2.265625 3.953125,4.796875 0,0.640625 -0.07813,1.1875 -0.07813,1.28125 0,0.21875 0.25,0.21875 0.3125,0.21875 0.28125,0 0.296875,-0.01563 0.40625,-0.46875 z m 0,0"
           id="path1605" />
      </g>
    </g>
    <g
       id="g4933">
      <g
         id="g3748">
        <path
           d="m 5.65625,-4.953125 c 0.421875,0.078125 1.078125,0.21875 1.234375,0.25 0.328125,0.09375 1.4375,0.484375 1.4375,1.6875 C 8.328125,-2.25 7.625,-0.25 4.765625,-0.25 4.234375,-0.25 2.375,-0.328125 1.890625,-1.6875 2.875,-1.5625 3.375,-2.328125 3.375,-2.875 c 0,-0.515625 -0.359375,-0.796875 -0.84375,-0.796875 -0.546875,0 -1.265625,0.421875 -1.265625,1.546875 0,1.453125 1.484375,2.375 3.46875,2.375 3.765625,0 4.875,-2.78125 4.875,-4.0625 0,-0.375 0,-1.0625 -0.78125,-1.859375 -0.625,-0.59375 -1.21875,-0.71875 -2.5625,-1 C 5.59375,-6.8125 4.53125,-7.03125 4.53125,-8.15625 c 0,-0.5 0.453125,-2.28125 2.796875,-2.28125 1.046875,0 2.0625,0.40625 2.3125,1.296875 -1.09375,0 -1.140625,0.9375 -1.140625,0.96875 0,0.515625 0.46875,0.65625 0.6875,0.65625 0.359375,0 1.046875,-0.265625 1.046875,-1.3125 0,-1.03125 -0.9375,-2.09375 -2.875,-2.09375 -3.25,0 -4.109375,2.546875 -4.109375,3.5625 0,1.875 1.828125,2.28125 2.40625,2.40625 z m 0,0"
           id="path4199" />
      </g>
      <g
         id="g4717">
        <path
           d="m 10.921875,-10.6875 c 0,-0.109375 -0.09375,-0.21875 -0.21875,-0.21875 -0.203125,0 -1.15625,0.890625 -1.640625,1.765625 -0.4375,-1.125 -1.203125,-1.78125 -2.265625,-1.78125 -2.8125,0 -5.828125,3.609375 -5.828125,7.28125 0,2.453125 1.4375,3.890625 3.125,3.890625 1.3125,0 2.40625,-1 2.921875,-1.5625 L 7.03125,-1.28125 6.09375,2.421875 5.875,3.328125 C 5.65625,4.0625 5.28125,4.0625 4.109375,4.09375 c -0.265625,0 -0.515625,0 -0.515625,0.46875 0,0.171875 0.140625,0.25 0.328125,0.25 0.34375,0 0.78125,-0.046875 1.140625,-0.046875 h 2.515625 c 0.375,0 0.796875,0.046875 1.171875,0.046875 0.140625,0 0.4375,0 0.4375,-0.46875 0,-0.25 -0.1875,-0.25 -0.5625,-0.25 -1.171875,0 -1.234375,-0.171875 -1.234375,-0.375 0,-0.125 0.015625,-0.15625 0.09375,-0.46875 z M 7.4375,-2.953125 C 7.3125,-2.53125 7.3125,-2.484375 6.96875,-2 c -0.546875,0.6875 -1.640625,1.75 -2.8125,1.75 -1.015625,0 -1.578125,-0.921875 -1.578125,-2.375 0,-1.359375 0.765625,-4.140625 1.234375,-5.1875 0.84375,-1.734375 2.015625,-2.625 2.984375,-2.625 1.625,0 1.953125,2.03125 1.953125,2.234375 0,0.03125 -0.078125,0.34375 -0.09375,0.390625 z m 0,0"
           id="path8595" />
      </g>
      <g
         id="g1531">
        <path
           d="m 9.640625,-10.140625 c -0.765625,0.15625 -1.171875,0.703125 -1.171875,1.25 0,0.59375 0.484375,0.78125 0.828125,0.78125 0.6875,0 1.265625,-0.59375 1.265625,-1.328125 0,-0.796875 -0.78125,-1.484375 -2.015625,-1.484375 -0.984375,0 -2.125,0.4375 -3.171875,1.953125 -0.171875,-1.3125 -1.15625,-1.953125 -2.15625,-1.953125 -0.96875,0 -1.453125,0.734375 -1.75,1.28125 -0.421875,0.890625 -0.796875,2.375 -0.796875,2.5 0,0.109375 0.09375,0.234375 0.265625,0.234375 0.203125,0 0.234375,-0.03125 0.375,-0.609375 C 1.6875,-9 2.15625,-10.4375 3.140625,-10.4375 c 0.59375,0 0.78125,0.421875 0.78125,1.140625 0,0.546875 -0.25,1.515625 -0.421875,2.28125 L 2.796875,-4.34375 c -0.09375,0.484375 -0.375,1.59375 -0.5,2.046875 C 2.125,-1.65625 1.859375,-0.5 1.859375,-0.375 1.859375,-0.03125 2.125,0.25 2.5,0.25 2.78125,0.25 3.25,0.078125 3.390625,-0.421875 3.46875,-0.625 4.390625,-4.359375 4.53125,-4.9375 4.65625,-5.484375 4.8125,-6 4.9375,-6.546875 c 0.09375,-0.34375 0.1875,-0.734375 0.265625,-1.0625 0.078125,-0.21875 0.75,-1.4375 1.359375,-1.984375 0.296875,-0.265625 0.953125,-0.84375 1.96875,-0.84375 0.390625,0 0.78125,0.07813 1.109375,0.296875 z m 0,0"
           id="path4894" />
      </g>
      <g
         id="g8517">
        <path
           d="m 4.984375,-9.96875 h 2.28125 c 0.46875,0 0.71875,0 0.71875,-0.4375 0,-0.28125 -0.15625,-0.28125 -0.65625,-0.28125 H 5.15625 l 0.921875,-3.609375 c 0.09375,-0.34375 0.09375,-0.390625 0.09375,-0.578125 0,-0.390625 -0.328125,-0.609375 -0.640625,-0.609375 -0.203125,0 -0.765625,0.07813 -0.96875,0.859375 l -0.96875,3.9375 H 1.265625 c -0.5,0 -0.71875,0 -0.71875,0.484375 0,0.234375 0.171875,0.234375 0.640625,0.234375 h 2.203125 l -1.625,6.546875 c -0.203125,0.875 -0.28125,1.125 -0.28125,1.4375 0,1.171875 0.8125,2.234375 2.203125,2.234375 2.5,0 3.84375,-3.625 3.84375,-3.796875 0,-0.140625 -0.09375,-0.21875 -0.25,-0.21875 -0.046875,0 -0.140625,0 -0.1875,0.09375 C 7.0625,-3.640625 7.03125,-3.625 6.859375,-3.21875 6.34375,-1.984375 5.203125,-0.25 3.765625,-0.25 c -0.75,0 -0.796875,-0.625 -0.796875,-1.15625 0,-0.03125 0,-0.5 0.078125,-0.796875 z m 0,0"
           id="path5585" />
      </g>
      <g
         id="g1957">
        <path
           d="M 7.21875,-5.625 C 7.578125,-5.625 8,-5.625 8,-6.015625 8,-6.34375 7.75,-6.34375 7.3125,-6.34375 H 3.296875 c 0.625,-2.25 2.078125,-3.625 4.28125,-3.625 h 0.71875 c 0.421875,0 0.796875,0 0.796875,-0.390625 0,-0.328125 -0.265625,-0.328125 -0.71875,-0.328125 H 7.53125 c -3.046875,0 -6.390625,2.4375 -6.390625,6.328125 0,2.75 1.859375,4.609375 4.3125,4.609375 1.578125,0 3.140625,-1 3.140625,-1.234375 0,-0.15625 -0.0625,-0.296875 -0.21875,-0.296875 -0.078125,0 -0.125,0.015625 -0.25,0.109375 C 7.1875,-0.546875 6.265625,-0.25 5.53125,-0.25 c -1.3125,0 -2.703125,-0.859375 -2.703125,-3.265625 0,-0.46875 0.046875,-1.125 0.265625,-2.109375 z m 0,0"
           id="path5721" />
      </g>
      <g
         id="g5708">
        <path
           d="M 3.5625,-0.546875 C 4.1875,0.03125 5.109375,0.25 5.953125,0.25 7.53125,0.25 8.625,-0.8125 9.1875,-1.59375 9.4375,-0.265625 10.484375,0.25 11.34375,0.25 c 0.75,0 1.34375,-0.453125 1.796875,-1.34375 C 13.53125,-1.9375 13.875,-3.4375 13.875,-3.546875 c 0,-0.125 -0.09375,-0.21875 -0.25,-0.21875 -0.21875,0 -0.25,0.125 -0.34375,0.5 C 12.90625,-1.8125 12.4375,-0.25 11.421875,-0.25 c -0.71875,0 -0.765625,-0.640625 -0.765625,-1.140625 0,-0.5625 0.21875,-1.453125 0.390625,-2.203125 L 11.75,-6.265625 c 0.09375,-0.46875 0.375,-1.59375 0.484375,-2.03125 0.15625,-0.59375 0.421875,-1.671875 0.421875,-1.765625 0,-0.375 -0.296875,-0.625 -0.65625,-0.625 -0.234375,0 -0.75,0.109375 -0.953125,0.84375 L 9.3125,-2.953125 C 9.1875,-2.453125 9.1875,-2.40625 8.875,-2 8.578125,-1.59375 7.609375,-0.25 6.046875,-0.25 4.65625,-0.25 4.21875,-1.265625 4.21875,-2.421875 c 0,-0.71875 0.21875,-1.59375 0.3125,-2.015625 l 1.125,-4.453125 c 0.125,-0.484375 0.3125,-1.265625 0.3125,-1.421875 0,-0.390625 -0.3125,-0.609375 -0.640625,-0.609375 -0.21875,0 -0.765625,0.0625 -0.96875,0.859375 L 0.765625,4.28125 C 0.75,4.40625 0.6875,4.5625 0.6875,4.703125 c 0,0.375 0.296875,0.625 0.671875,0.625 0.71875,0 0.875,-0.5625 1.046875,-1.265625 z m 0,0"
           id="path9684" />
      </g>
    </g>
    <g
       id="g243">
      <g
         id="g7511">
        <path
           d="m 10.625,-17.671875 c 0,-0.01563 0.15625,-0.390625 0.15625,-0.4375 0,-0.296875 -0.25,-0.46875 -0.453125,-0.46875 -0.125,0 -0.34375,0 -0.546875,0.53125 L 1.484375,5.28125 c 0,0.015625 -0.140625,0.390625 -0.140625,0.4375 0,0.296875 0.25,0.46875 0.4375,0.46875 0.15625,0 0.375,-0.015625 0.546875,-0.53125 z m 0,0"
           id="path2818" />
      </g>
      <g
         id="g2972">
        <path
           d="m 5.65625,-4.953125 c 0.421875,0.078125 1.078125,0.21875 1.234375,0.25 0.328125,0.09375 1.4375,0.484375 1.4375,1.6875 C 8.328125,-2.25 7.625,-0.25 4.765625,-0.25 4.234375,-0.25 2.375,-0.328125 1.890625,-1.6875 2.875,-1.5625 3.375,-2.328125 3.375,-2.875 c 0,-0.515625 -0.359375,-0.796875 -0.84375,-0.796875 -0.546875,0 -1.265625,0.421875 -1.265625,1.546875 0,1.453125 1.484375,2.375 3.46875,2.375 3.765625,0 4.875,-2.78125 4.875,-4.0625 0,-0.375 0,-1.0625 -0.78125,-1.859375 -0.625,-0.59375 -1.21875,-0.71875 -2.5625,-1 C 5.59375,-6.8125 4.53125,-7.03125 4.53125,-8.15625 c 0,-0.5 0.453125,-2.28125 2.796875,-2.28125 1.046875,0 2.0625,0.40625 2.3125,1.296875 -1.09375,0 -1.140625,0.9375 -1.140625,0.96875 0,0.515625 0.46875,0.65625 0.6875,0.65625 0.359375,0 1.046875,-0.265625 1.046875,-1.3125 0,-1.03125 -0.9375,-2.09375 -2.875,-2.09375 -3.25,0 -4.109375,2.546875 -4.109375,3.5625 0,1.875 1.828125,2.28125 2.40625,2.40625 z m 0,0"
           id="path381" />
      </g>
      <g
         id="g1367">
        <path
           d="m 10.921875,-10.6875 c 0,-0.109375 -0.09375,-0.21875 -0.21875,-0.21875 -0.203125,0 -1.15625,0.890625 -1.640625,1.765625 -0.4375,-1.125 -1.203125,-1.78125 -2.265625,-1.78125 -2.8125,0 -5.828125,3.609375 -5.828125,7.28125 0,2.453125 1.4375,3.890625 3.125,3.890625 1.3125,0 2.40625,-1 2.921875,-1.5625 L 7.03125,-1.28125 6.09375,2.421875 5.875,3.328125 C 5.65625,4.0625 5.28125,4.0625 4.109375,4.09375 c -0.265625,0 -0.515625,0 -0.515625,0.46875 0,0.171875 0.140625,0.25 0.328125,0.25 0.34375,0 0.78125,-0.046875 1.140625,-0.046875 h 2.515625 c 0.375,0 0.796875,0.046875 1.171875,0.046875 0.140625,0 0.4375,0 0.4375,-0.46875 0,-0.25 -0.1875,-0.25 -0.5625,-0.25 -1.171875,0 -1.234375,-0.171875 -1.234375,-0.375 0,-0.125 0.015625,-0.15625 0.09375,-0.46875 z M 7.4375,-2.953125 C 7.3125,-2.53125 7.3125,-2.484375 6.96875,-2 c -0.546875,0.6875 -1.640625,1.75 -2.8125,1.75 -1.015625,0 -1.578125,-0.921875 -1.578125,-2.375 0,-1.359375 0.765625,-4.140625 1.234375,-5.1875 0.84375,-1.734375 2.015625,-2.625 2.984375,-2.625 1.625,0 1.953125,2.03125 1.953125,2.234375 0,0.03125 -0.078125,0.34375 -0.09375,0.390625 z m 0,0"
           id="path6908" />
      </g>
      <g
         id="g9579">
        <path
           d="m 9.640625,-10.140625 c -0.765625,0.15625 -1.171875,0.703125 -1.171875,1.25 0,0.59375 0.484375,0.78125 0.828125,0.78125 0.6875,0 1.265625,-0.59375 1.265625,-1.328125 0,-0.796875 -0.78125,-1.484375 -2.015625,-1.484375 -0.984375,0 -2.125,0.4375 -3.171875,1.953125 -0.171875,-1.3125 -1.15625,-1.953125 -2.15625,-1.953125 -0.96875,0 -1.453125,0.734375 -1.75,1.28125 -0.421875,0.890625 -0.796875,2.375 -0.796875,2.5 0,0.109375 0.09375,0.234375 0.265625,0.234375 0.203125,0 0.234375,-0.03125 0.375,-0.609375 C 1.6875,-9 2.15625,-10.4375 3.140625,-10.4375 c 0.59375,0 0.78125,0.421875 0.78125,1.140625 0,0.546875 -0.25,1.515625 -0.421875,2.28125 L 2.796875,-4.34375 c -0.09375,0.484375 -0.375,1.59375 -0.5,2.046875 C 2.125,-1.65625 1.859375,-0.5 1.859375,-0.375 1.859375,-0.03125 2.125,0.25 2.5,0.25 2.78125,0.25 3.25,0.078125 3.390625,-0.421875 3.46875,-0.625 4.390625,-4.359375 4.53125,-4.9375 4.65625,-5.484375 4.8125,-6 4.9375,-6.546875 c 0.09375,-0.34375 0.1875,-0.734375 0.265625,-1.0625 0.078125,-0.21875 0.75,-1.4375 1.359375,-1.984375 0.296875,-0.265625 0.953125,-0.84375 1.96875,-0.84375 0.390625,0 0.78125,0.07813 1.109375,0.296875 z m 0,0"
           id="path6695" />
      </g>
      <g
         id="g5734">
        <path
           d="m 4.984375,-9.96875 h 2.28125 c 0.46875,0 0.71875,0 0.71875,-0.4375 0,-0.28125 -0.15625,-0.28125 -0.65625,-0.28125 H 5.15625 l 0.921875,-3.609375 c 0.09375,-0.34375 0.09375,-0.390625 0.09375,-0.578125 0,-0.390625 -0.328125,-0.609375 -0.640625,-0.609375 -0.203125,0 -0.765625,0.07813 -0.96875,0.859375 l -0.96875,3.9375 H 1.265625 c -0.5,0 -0.71875,0 -0.71875,0.484375 0,0.234375 0.171875,0.234375 0.640625,0.234375 h 2.203125 l -1.625,6.546875 c -0.203125,0.875 -0.28125,1.125 -0.28125,1.4375 0,1.171875 0.8125,2.234375 2.203125,2.234375 2.5,0 3.84375,-3.625 3.84375,-3.796875 0,-0.140625 -0.09375,-0.21875 -0.25,-0.21875 -0.046875,0 -0.140625,0 -0.1875,0.09375 C 7.0625,-3.640625 7.03125,-3.625 6.859375,-3.21875 6.34375,-1.984375 5.203125,-0.25 3.765625,-0.25 c -0.75,0 -0.796875,-0.625 -0.796875,-1.15625 0,-0.03125 0,-0.5 0.078125,-0.796875 z m 0,0"
           id="path5211" />
      </g>
      <g
         id="g7768">
        <path
           d="M 7.21875,-5.625 C 7.578125,-5.625 8,-5.625 8,-6.015625 8,-6.34375 7.75,-6.34375 7.3125,-6.34375 H 3.296875 c 0.625,-2.25 2.078125,-3.625 4.28125,-3.625 h 0.71875 c 0.421875,0 0.796875,0 0.796875,-0.390625 0,-0.328125 -0.265625,-0.328125 -0.71875,-0.328125 H 7.53125 c -3.046875,0 -6.390625,2.4375 -6.390625,6.328125 0,2.75 1.859375,4.609375 4.3125,4.609375 1.578125,0 3.140625,-1 3.140625,-1.234375 0,-0.15625 -0.0625,-0.296875 -0.21875,-0.296875 -0.078125,0 -0.125,0.015625 -0.25,0.109375 C 7.1875,-0.546875 6.265625,-0.25 5.53125,-0.25 c -1.3125,0 -2.703125,-0.859375 -2.703125,-3.265625 0,-0.46875 0.046875,-1.125 0.265625,-2.109375 z m 0,0"
           id="path9451" />
      </g>
      <g
         id="g3046">
        <path
           d="M 3.5625,-0.546875 C 4.1875,0.03125 5.109375,0.25 5.953125,0.25 7.53125,0.25 8.625,-0.8125 9.1875,-1.59375 9.4375,-0.265625 10.484375,0.25 11.34375,0.25 c 0.75,0 1.34375,-0.453125 1.796875,-1.34375 C 13.53125,-1.9375 13.875,-3.4375 13.875,-3.546875 c 0,-0.125 -0.09375,-0.21875 -0.25,-0.21875 -0.21875,0 -0.25,0.125 -0.34375,0.5 C 12.90625,-1.8125 12.4375,-0.25 11.421875,-0.25 c -0.71875,0 -0.765625,-0.640625 -0.765625,-1.140625 0,-0.5625 0.21875,-1.453125 0.390625,-2.203125 L 11.75,-6.265625 c 0.09375,-0.46875 0.375,-1.59375 0.484375,-2.03125 0.15625,-0.59375 0.421875,-1.671875 0.421875,-1.765625 0,-0.375 -0.296875,-0.625 -0.65625,-0.625 -0.234375,0 -0.75,0.109375 -0.953125,0.84375 L 9.3125,-2.953125 C 9.1875,-2.453125 9.1875,-2.40625 8.875,-2 8.578125,-1.59375 7.609375,-0.25 6.046875,-0.25 4.65625,-0.25 4.21875,-1.265625 4.21875,-2.421875 c 0,-0.71875 0.21875,-1.59375 0.3125,-2.015625 l 1.125,-4.453125 c 0.125,-0.484375 0.3125,-1.265625 0.3125,-1.421875 0,-0.390625 -0.3125,-0.609375 -0.640625,-0.609375 -0.21875,0 -0.765625,0.0625 -0.96875,0.859375 L 0.765625,4.28125 C 0.75,4.40625 0.6875,4.5625 0.6875,4.703125 c 0,0.375 0.296875,0.625 0.671875,0.625 0.71875,0 0.875,-0.5625 1.046875,-1.265625 z m 0,0"
           id="path3103" />
      </g>
    </g>
    <g
       id="g717">
      <g
         id="g11">
        <path
           d="m 10.625,-17.671875 c 0,-0.01563 0.15625,-0.390625 0.15625,-0.4375 0,-0.296875 -0.25,-0.46875 -0.453125,-0.46875 -0.125,0 -0.34375,0 -0.546875,0.53125 L 1.484375,5.28125 c 0,0.015625 -0.140625,0.390625 -0.140625,0.4375 0,0.296875 0.25,0.46875 0.4375,0.46875 0.15625,0 0.375,-0.015625 0.546875,-0.53125 z m 0,0"
           id="path7559" />
      </g>
      <g
         id="g6797">
        <path
           d="m 5.65625,-4.953125 c 0.421875,0.078125 1.078125,0.21875 1.234375,0.25 0.328125,0.09375 1.4375,0.484375 1.4375,1.6875 C 8.328125,-2.25 7.625,-0.25 4.765625,-0.25 4.234375,-0.25 2.375,-0.328125 1.890625,-1.6875 2.875,-1.5625 3.375,-2.328125 3.375,-2.875 c 0,-0.515625 -0.359375,-0.796875 -0.84375,-0.796875 -0.546875,0 -1.265625,0.421875 -1.265625,1.546875 0,1.453125 1.484375,2.375 3.46875,2.375 3.765625,0 4.875,-2.78125 4.875,-4.0625 0,-0.375 0,-1.0625 -0.78125,-1.859375 -0.625,-0.59375 -1.21875,-0.71875 -2.5625,-1 C 5.59375,-6.8125 4.53125,-7.03125 4.53125,-8.15625 c 0,-0.5 0.453125,-2.28125 2.796875,-2.28125 1.046875,0 2.0625,0.40625 2.3125,1.296875 -1.09375,0 -1.140625,0.9375 -1.140625,0.96875 0,0.515625 0.46875,0.65625 0.6875,0.65625 0.359375,0 1.046875,-0.265625 1.046875,-1.3125 0,-1.03125 -0.9375,-2.09375 -2.875,-2.09375 -3.25,0 -4.109375,2.546875 -4.109375,3.5625 0,1.875 1.828125,2.28125 2.40625,2.40625 z m 0,0"
           id="path2859" />
      </g>
      <g
         id="g5493">
        <path
           d="m 10.921875,-10.6875 c 0,-0.109375 -0.09375,-0.21875 -0.21875,-0.21875 -0.203125,0 -1.15625,0.890625 -1.640625,1.765625 -0.4375,-1.125 -1.203125,-1.78125 -2.265625,-1.78125 -2.8125,0 -5.828125,3.609375 -5.828125,7.28125 0,2.453125 1.4375,3.890625 3.125,3.890625 1.3125,0 2.40625,-1 2.921875,-1.5625 L 7.03125,-1.28125 6.09375,2.421875 5.875,3.328125 C 5.65625,4.0625 5.28125,4.0625 4.109375,4.09375 c -0.265625,0 -0.515625,0 -0.515625,0.46875 0,0.171875 0.140625,0.25 0.328125,0.25 0.34375,0 0.78125,-0.046875 1.140625,-0.046875 h 2.515625 c 0.375,0 0.796875,0.046875 1.171875,0.046875 0.140625,0 0.4375,0 0.4375,-0.46875 0,-0.25 -0.1875,-0.25 -0.5625,-0.25 -1.171875,0 -1.234375,-0.171875 -1.234375,-0.375 0,-0.125 0.015625,-0.15625 0.09375,-0.46875 z M 7.4375,-2.953125 C 7.3125,-2.53125 7.3125,-2.484375 6.96875,-2 c -0.546875,0.6875 -1.640625,1.75 -2.8125,1.75 -1.015625,0 -1.578125,-0.921875 -1.578125,-2.375 0,-1.359375 0.765625,-4.140625 1.234375,-5.1875 0.84375,-1.734375 2.015625,-2.625 2.984375,-2.625 1.625,0 1.953125,2.03125 1.953125,2.234375 0,0.03125 -0.078125,0.34375 -0.09375,0.390625 z m 0,0"
           id="path3509" />
      </g>
      <g
         id="g2971">
        <path
           d="m 9.640625,-10.140625 c -0.765625,0.15625 -1.171875,0.703125 -1.171875,1.25 0,0.59375 0.484375,0.78125 0.828125,0.78125 0.6875,0 1.265625,-0.59375 1.265625,-1.328125 0,-0.796875 -0.78125,-1.484375 -2.015625,-1.484375 -0.984375,0 -2.125,0.4375 -3.171875,1.953125 -0.171875,-1.3125 -1.15625,-1.953125 -2.15625,-1.953125 -0.96875,0 -1.453125,0.734375 -1.75,1.28125 -0.421875,0.890625 -0.796875,2.375 -0.796875,2.5 0,0.109375 0.09375,0.234375 0.265625,0.234375 0.203125,0 0.234375,-0.03125 0.375,-0.609375 C 1.6875,-9 2.15625,-10.4375 3.140625,-10.4375 c 0.59375,0 0.78125,0.421875 0.78125,1.140625 0,0.546875 -0.25,1.515625 -0.421875,2.28125 L 2.796875,-4.34375 c -0.09375,0.484375 -0.375,1.59375 -0.5,2.046875 C 2.125,-1.65625 1.859375,-0.5 1.859375,-0.375 1.859375,-0.03125 2.125,0.25 2.5,0.25 2.78125,0.25 3.25,0.078125 3.390625,-0.421875 3.46875,-0.625 4.390625,-4.359375 4.53125,-4.9375 4.65625,-5.484375 4.8125,-6 4.9375,-6.546875 c 0.09375,-0.34375 0.1875,-0.734375 0.265625,-1.0625 0.078125,-0.21875 0.75,-1.4375 1.359375,-1.984375 0.296875,-0.265625 0.953125,-0.84375 1.96875,-0.84375 0.390625,0 0.78125,0.07813 1.109375,0.296875 z m 0,0"
           id="path8400" />
      </g>
      <g
         id="g6100">
        <path
           d="m 4.984375,-9.96875 h 2.28125 c 0.46875,0 0.71875,0 0.71875,-0.4375 0,-0.28125 -0.15625,-0.28125 -0.65625,-0.28125 H 5.15625 l 0.921875,-3.609375 c 0.09375,-0.34375 0.09375,-0.390625 0.09375,-0.578125 0,-0.390625 -0.328125,-0.609375 -0.640625,-0.609375 -0.203125,0 -0.765625,0.07813 -0.96875,0.859375 l -0.96875,3.9375 H 1.265625 c -0.5,0 -0.71875,0 -0.71875,0.484375 0,0.234375 0.171875,0.234375 0.640625,0.234375 h 2.203125 l -1.625,6.546875 c -0.203125,0.875 -0.28125,1.125 -0.28125,1.4375 0,1.171875 0.8125,2.234375 2.203125,2.234375 2.5,0 3.84375,-3.625 3.84375,-3.796875 0,-0.140625 -0.09375,-0.21875 -0.25,-0.21875 -0.046875,0 -0.140625,0 -0.1875,0.09375 C 7.0625,-3.640625 7.03125,-3.625 6.859375,-3.21875 6.34375,-1.984375 5.203125,-0.25 3.765625,-0.25 c -0.75,0 -0.796875,-0.625 -0.796875,-1.15625 0,-0.03125 0,-0.5 0.078125,-0.796875 z m 0,0"
           id="path380" />
      </g>
      <g
         id="g5356">
        <path
           d="M 7.21875,-5.625 C 7.578125,-5.625 8,-5.625 8,-6.015625 8,-6.34375 7.75,-6.34375 7.3125,-6.34375 H 3.296875 c 0.625,-2.25 2.078125,-3.625 4.28125,-3.625 h 0.71875 c 0.421875,0 0.796875,0 0.796875,-0.390625 0,-0.328125 -0.265625,-0.328125 -0.71875,-0.328125 H 7.53125 c -3.046875,0 -6.390625,2.4375 -6.390625,6.328125 0,2.75 1.859375,4.609375 4.3125,4.609375 1.578125,0 3.140625,-1 3.140625,-1.234375 0,-0.15625 -0.0625,-0.296875 -0.21875,-0.296875 -0.078125,0 -0.125,0.015625 -0.25,0.109375 C 7.1875,-0.546875 6.265625,-0.25 5.53125,-0.25 c -1.3125,0 -2.703125,-0.859375 -2.703125,-3.265625 0,-0.46875 0.046875,-1.125 0.265625,-2.109375 z m 0,0"
           id="path6307" />
      </g>
      <g
         id="g8185">
        <path
           d="M 3.5625,-0.546875 C 4.1875,0.03125 5.109375,0.25 5.953125,0.25 7.53125,0.25 8.625,-0.8125 9.1875,-1.59375 9.4375,-0.265625 10.484375,0.25 11.34375,0.25 c 0.75,0 1.34375,-0.453125 1.796875,-1.34375 C 13.53125,-1.9375 13.875,-3.4375 13.875,-3.546875 c 0,-0.125 -0.09375,-0.21875 -0.25,-0.21875 -0.21875,0 -0.25,0.125 -0.34375,0.5 C 12.90625,-1.8125 12.4375,-0.25 11.421875,-0.25 c -0.71875,0 -0.765625,-0.640625 -0.765625,-1.140625 0,-0.5625 0.21875,-1.453125 0.390625,-2.203125 L 11.75,-6.265625 c 0.09375,-0.46875 0.375,-1.59375 0.484375,-2.03125 0.15625,-0.59375 0.421875,-1.671875 0.421875,-1.765625 0,-0.375 -0.296875,-0.625 -0.65625,-0.625 -0.234375,0 -0.75,0.109375 -0.953125,0.84375 L 9.3125,-2.953125 C 9.1875,-2.453125 9.1875,-2.40625 8.875,-2 8.578125,-1.59375 7.609375,-0.25 6.046875,-0.25 4.65625,-0.25 4.21875,-1.265625 4.21875,-2.421875 c 0,-0.71875 0.21875,-1.59375 0.3125,-2.015625 l 1.125,-4.453125 c 0.125,-0.484375 0.3125,-1.265625 0.3125,-1.421875 0,-0.390625 -0.3125,-0.609375 -0.640625,-0.609375 -0.21875,0 -0.765625,0.0625 -0.96875,0.859375 L 0.765625,4.28125 C 0.75,4.40625 0.6875,4.5625 0.6875,4.703125 c 0,0.375 0.296875,0.625 0.671875,0.625 0.71875,0 0.875,-0.5625 1.046875,-1.265625 z m 0,0"
           id="path3947" />
      </g>
    </g>
    <g
       id="g3839">
      <g
         id="g1205">
        <path
           d="M 9.640625,21.1875 5.28125,11.546875 C 5.109375,11.15625 4.984375,11.15625 4.90625,11.15625 c -0.03125,0 -0.140625,0 -0.421875,0.1875 L 2.125,13.140625 c -0.3125,0.234375 -0.3125,0.3125 -0.3125,0.390625 0,0.125 0.078125,0.265625 0.25,0.265625 0.140625,0 0.5625,-0.34375 0.84375,-0.53125 0.140625,-0.125 0.515625,-0.40625 0.78125,-0.609375 l 4.890625,10.734375 c 0.171875,0.40625 0.296875,0.40625 0.515625,0.40625 0.375,0 0.453125,-0.15625 0.625,-0.5 L 20.96875,0 c 0.171875,-0.34375 0.171875,-0.453125 0.171875,-0.5 0,-0.25 -0.203125,-0.484375 -0.5,-0.484375 -0.203125,0 -0.375,0.109375 -0.5625,0.515625 z m 0,0"
           id="path1406" />
      </g>
      <g
         id="g1725">
        <path
           d="M 7.21875,-5.625 C 7.578125,-5.625 8,-5.625 8,-6.015625 8,-6.34375 7.75,-6.34375 7.3125,-6.34375 H 3.296875 c 0.625,-2.25 2.078125,-3.625 4.28125,-3.625 h 0.71875 c 0.421875,0 0.796875,0 0.796875,-0.390625 0,-0.328125 -0.265625,-0.328125 -0.71875,-0.328125 H 7.53125 c -3.046875,0 -6.390625,2.4375 -6.390625,6.328125 0,2.75 1.859375,4.609375 4.3125,4.609375 1.578125,0 3.140625,-1 3.140625,-1.234375 0,-0.15625 -0.0625,-0.296875 -0.21875,-0.296875 -0.078125,0 -0.125,0.015625 -0.25,0.109375 C 7.1875,-0.546875 6.265625,-0.25 5.53125,-0.25 c -1.3125,0 -2.703125,-0.859375 -2.703125,-3.265625 0,-0.46875 0.046875,-1.125 0.265625,-2.109375 z m 0,0"
           id="path3161" />
      </g>
      <g
         id="g9160">
        <path
           d="M 3.5625,-0.546875 C 4.1875,0.03125 5.109375,0.25 5.953125,0.25 7.53125,0.25 8.625,-0.8125 9.1875,-1.59375 9.4375,-0.265625 10.484375,0.25 11.34375,0.25 c 0.75,0 1.34375,-0.453125 1.796875,-1.34375 C 13.53125,-1.9375 13.875,-3.4375 13.875,-3.546875 c 0,-0.125 -0.09375,-0.21875 -0.25,-0.21875 -0.21875,0 -0.25,0.125 -0.34375,0.5 C 12.90625,-1.8125 12.4375,-0.25 11.421875,-0.25 c -0.71875,0 -0.765625,-0.640625 -0.765625,-1.140625 0,-0.5625 0.21875,-1.453125 0.390625,-2.203125 L 11.75,-6.265625 c 0.09375,-0.46875 0.375,-1.59375 0.484375,-2.03125 0.15625,-0.59375 0.421875,-1.671875 0.421875,-1.765625 0,-0.375 -0.296875,-0.625 -0.65625,-0.625 -0.234375,0 -0.75,0.109375 -0.953125,0.84375 L 9.3125,-2.953125 C 9.1875,-2.453125 9.1875,-2.40625 8.875,-2 8.578125,-1.59375 7.609375,-0.25 6.046875,-0.25 4.65625,-0.25 4.21875,-1.265625 4.21875,-2.421875 c 0,-0.71875 0.21875,-1.59375 0.3125,-2.015625 l 1.125,-4.453125 c 0.125,-0.484375 0.3125,-1.265625 0.3125,-1.421875 0,-0.390625 -0.3125,-0.609375 -0.640625,-0.609375 -0.21875,0 -0.765625,0.0625 -0.96875,0.859375 L 0.765625,4.28125 C 0.75,4.40625 0.6875,4.5625 0.6875,4.703125 c 0,0.375 0.296875,0.625 0.671875,0.625 0.71875,0 0.875,-0.5625 1.046875,-1.265625 z m 0,0"
           id="path6516" />
      </g>
    </g>
    <g
       id="g8652">
      <g
         id="g9741">
        <path
           d="m 9.6875,-9.3125 c -0.46875,0 -0.6875,0 -1.03125,0.296875 C 8.5,-8.890625 8.234375,-8.53125 8.234375,-8.125 c 0,0.5 0.359375,0.796875 0.828125,0.796875 0.609375,0 1.265625,-0.5 1.265625,-1.5 0,-1.1875 -1.140625,-2.09375 -2.84375,-2.09375 -3.25,0 -6.5,3.53125 -6.5,7.0625 0,2.15625 1.34375,4.109375 3.875,4.109375 3.375,0 5.5,-2.625 5.5,-2.953125 0,-0.140625 -0.15625,-0.265625 -0.25,-0.265625 -0.07813,0 -0.09375,0.015625 -0.328125,0.25 C 8.203125,-0.625 5.84375,-0.25 4.90625,-0.25 c -1.703125,0 -2.25,-1.484375 -2.25,-2.71875 0,-0.875 0.421875,-3.28125 1.3125,-4.96875 0.640625,-1.15625 1.984375,-2.5 3.546875,-2.5 0.3125,0 1.671875,0.04687 2.171875,1.125 z m 0,0"
           id="path6354" />
      </g>
      <g
         id="g6526">
        <path
           d="M 7.21875,-5.625 C 7.578125,-5.625 8,-5.625 8,-6.015625 8,-6.34375 7.75,-6.34375 7.3125,-6.34375 H 3.296875 c 0.625,-2.25 2.078125,-3.625 4.28125,-3.625 h 0.71875 c 0.421875,0 0.796875,0 0.796875,-0.390625 0,-0.328125 -0.265625,-0.328125 -0.71875,-0.328125 H 7.53125 c -3.046875,0 -6.390625,2.4375 -6.390625,6.328125 0,2.75 1.859375,4.609375 4.3125,4.609375 1.578125,0 3.140625,-1 3.140625,-1.234375 0,-0.15625 -0.0625,-0.296875 -0.21875,-0.296875 -0.078125,0 -0.125,0.015625 -0.25,0.109375 C 7.1875,-0.546875 6.265625,-0.25 5.53125,-0.25 c -1.3125,0 -2.703125,-0.859375 -2.703125,-3.265625 0,-0.46875 0.046875,-1.125 0.265625,-2.109375 z m 0,0"
           id="path3547" />
      </g>
      <g
         id="g553">
        <path
           d="M 3.5625,-0.546875 C 4.1875,0.03125 5.109375,0.25 5.953125,0.25 7.53125,0.25 8.625,-0.8125 9.1875,-1.59375 9.4375,-0.265625 10.484375,0.25 11.34375,0.25 c 0.75,0 1.34375,-0.453125 1.796875,-1.34375 C 13.53125,-1.9375 13.875,-3.4375 13.875,-3.546875 c 0,-0.125 -0.09375,-0.21875 -0.25,-0.21875 -0.21875,0 -0.25,0.125 -0.34375,0.5 C 12.90625,-1.8125 12.4375,-0.25 11.421875,-0.25 c -0.71875,0 -0.765625,-0.640625 -0.765625,-1.140625 0,-0.5625 0.21875,-1.453125 0.390625,-2.203125 L 11.75,-6.265625 c 0.09375,-0.46875 0.375,-1.59375 0.484375,-2.03125 0.15625,-0.59375 0.421875,-1.671875 0.421875,-1.765625 0,-0.375 -0.296875,-0.625 -0.65625,-0.625 -0.234375,0 -0.75,0.109375 -0.953125,0.84375 L 9.3125,-2.953125 C 9.1875,-2.453125 9.1875,-2.40625 8.875,-2 8.578125,-1.59375 7.609375,-0.25 6.046875,-0.25 4.65625,-0.25 4.21875,-1.265625 4.21875,-2.421875 c 0,-0.71875 0.21875,-1.59375 0.3125,-2.015625 l 1.125,-4.453125 c 0.125,-0.484375 0.3125,-1.265625 0.3125,-1.421875 0,-0.390625 -0.3125,-0.609375 -0.640625,-0.609375 -0.21875,0 -0.765625,0.0625 -0.96875,0.859375 L 0.765625,4.28125 C 0.75,4.40625 0.6875,4.5625 0.6875,4.703125 c 0,0.375 0.296875,0.625 0.671875,0.625 0.71875,0 0.875,-0.5625 1.046875,-1.265625 z m 0,0"
           id="path1603" />
      </g>
      <g
         id="g8288">
        <path
           d="M 9.640625,21.1875 5.28125,11.546875 C 5.109375,11.15625 4.984375,11.15625 4.90625,11.15625 c -0.03125,0 -0.140625,0 -0.421875,0.1875 L 2.125,13.140625 c -0.3125,0.234375 -0.3125,0.3125 -0.3125,0.390625 0,0.125 0.078125,0.265625 0.25,0.265625 0.140625,0 0.5625,-0.34375 0.84375,-0.53125 0.140625,-0.125 0.515625,-0.40625 0.78125,-0.609375 l 4.890625,10.734375 c 0.171875,0.40625 0.296875,0.40625 0.515625,0.40625 0.375,0 0.453125,-0.15625 0.625,-0.5 L 20.96875,0 c 0.171875,-0.34375 0.171875,-0.453125 0.171875,-0.5 0,-0.25 -0.203125,-0.484375 -0.5,-0.484375 -0.203125,0 -0.375,0.109375 -0.5625,0.515625 z m 0,0"
           id="path2995" />
      </g>
    </g>
    <g
       id="g8508">
      <g
         id="g7151">
        <path
           d="m 12.46875,-16.578125 c 0.01563,-0.09375 0.07813,-0.25 0.07813,-0.375 0,-0.25 -0.25,-0.25 -0.3125,-0.25 -0.01563,0 -1.234375,0.109375 -1.359375,0.125 -0.421875,0.03125 -0.78125,0.07813 -1.234375,0.109375 -0.625,0.04687 -0.796875,0.0625 -0.796875,0.515625 0,0.25 0.203125,0.25 0.546875,0.25 1.21875,0 1.234375,0.21875 1.234375,0.46875 0,0.140625 -0.04687,0.34375 -0.0625,0.421875 L 9.04688,-9.296875 c -0.28125,-0.640625 -0.9375,-1.625 -2.234375,-1.625 -2.796875,0 -5.828125,3.609375 -5.828125,7.28125 0,2.453125 1.4375,3.890625 3.125,3.890625 1.375,0 2.53125,-1.0625 3.21875,-1.890625 C 7.578125,-0.171875 8.75,0.25 9.484375,0.25 c 0.75,0 1.34375,-0.453125 1.796875,-1.34375 0.390625,-0.84375 0.734375,-2.34375 0.734375,-2.453125 0,-0.125 -0.09375,-0.21875 -0.25,-0.21875 -0.21875,0 -0.25,0.125 -0.34375,0.5 C 11.046875,-1.8125 10.578125,-0.25 9.5625,-0.25 c -0.71875,0 -0.765625,-0.640625 -0.765625,-1.140625 0,-0.09375 0,-0.609375 0.171875,-1.3125 z m -5.015625,13.625 c -0.125,0.421875 -0.125,0.46875 -0.46875,0.953125 -0.546875,0.6875 -1.625,1.75 -2.796875,1.75 -1.015625,0 -1.578125,-0.921875 -1.578125,-2.375 0,-1.359375 0.765625,-4.140625 1.234375,-5.1875 0.84375,-1.734375 2,-2.625 2.96875,-2.625 1.640625,0 1.953125,2.03125 1.953125,2.234375 0,0.03125 -0.0625,0.34375 -0.09375,0.390625 z m 0,0"
           id="path8944" />
      </g>
      <g
         id="g3445">
        <path
           d="m 11.296875,-6.8125 c 0,-2.359375 -1.53125,-4.109375 -3.78125,-4.109375 -3.28125,0 -6.5,3.5625 -6.5,7.0625 0,2.34375 1.53125,4.109375 3.796875,4.109375 3.296875,0 6.484375,-3.578125 6.484375,-7.0625 z M 4.828125,-0.25 c -1.234375,0 -2.15625,-0.984375 -2.15625,-2.71875 0,-1.140625 0.59375,-3.671875 1.296875,-4.90625 1.109375,-1.90625 2.5,-2.5625 3.515625,-2.5625 1.21875,0 2.15625,1 2.15625,2.734375 0,0.984375 -0.515625,3.640625 -1.46875,5.15625 C 7.15625,-0.890625 5.796875,-0.25 4.828125,-0.25 Z m 0,0"
           id="path9958" />
      </g>
      <g
         id="g9814">
        <path
           d="m 9.6875,-9.3125 c -0.46875,0 -0.6875,0 -1.03125,0.296875 C 8.5,-8.890625 8.234375,-8.53125 8.234375,-8.125 c 0,0.5 0.359375,0.796875 0.828125,0.796875 0.609375,0 1.265625,-0.5 1.265625,-1.5 0,-1.1875 -1.140625,-2.09375 -2.84375,-2.09375 -3.25,0 -6.5,3.53125 -6.5,7.0625 0,2.15625 1.34375,4.109375 3.875,4.109375 3.375,0 5.5,-2.625 5.5,-2.953125 0,-0.140625 -0.15625,-0.265625 -0.25,-0.265625 -0.07813,0 -0.09375,0.015625 -0.328125,0.25 C 8.203125,-0.625 5.84375,-0.25 4.90625,-0.25 c -1.703125,0 -2.25,-1.484375 -2.25,-2.71875 0,-0.875 0.421875,-3.28125 1.3125,-4.96875 0.640625,-1.15625 1.984375,-2.5 3.546875,-2.5 0.3125,0 1.671875,0.04687 2.171875,1.125 z m 0,0"
           id="path6891" />
      </g>
      <g
         id="g3059">
        <path
           d="M 7.21875,-5.625 C 7.578125,-5.625 8,-5.625 8,-6.015625 8,-6.34375 7.75,-6.34375 7.3125,-6.34375 H 3.296875 c 0.625,-2.25 2.078125,-3.625 4.28125,-3.625 h 0.71875 c 0.421875,0 0.796875,0 0.796875,-0.390625 0,-0.328125 -0.265625,-0.328125 -0.71875,-0.328125 H 7.53125 c -3.046875,0 -6.390625,2.4375 -6.390625,6.328125 0,2.75 1.859375,4.609375 4.3125,4.609375 1.578125,0 3.140625,-1 3.140625,-1.234375 0,-0.15625 -0.0625,-0.296875 -0.21875,-0.296875 -0.078125,0 -0.125,0.015625 -0.25,0.109375 C 7.1875,-0.546875 6.265625,-0.25 5.53125,-0.25 c -1.3125,0 -2.703125,-0.859375 -2.703125,-3.265625 0,-0.46875 0.046875,-1.125 0.265625,-2.109375 z m 0,0"
           id="path2532" />
      </g>
      <g
         id="g5032">
        <path
           d="M 3.5625,-0.546875 C 4.1875,0.03125 5.109375,0.25 5.953125,0.25 7.53125,0.25 8.625,-0.8125 9.1875,-1.59375 9.4375,-0.265625 10.484375,0.25 11.34375,0.25 c 0.75,0 1.34375,-0.453125 1.796875,-1.34375 C 13.53125,-1.9375 13.875,-3.4375 13.875,-3.546875 c 0,-0.125 -0.09375,-0.21875 -0.25,-0.21875 -0.21875,0 -0.25,0.125 -0.34375,0.5 C 12.90625,-1.8125 12.4375,-0.25 11.421875,-0.25 c -0.71875,0 -0.765625,-0.640625 -0.765625,-1.140625 0,-0.5625 0.21875,-1.453125 0.390625,-2.203125 L 11.75,-6.265625 c 0.09375,-0.46875 0.375,-1.59375 0.484375,-2.03125 0.15625,-0.59375 0.421875,-1.671875 0.421875,-1.765625 0,-0.375 -0.296875,-0.625 -0.65625,-0.625 -0.234375,0 -0.75,0.109375 -0.953125,0.84375 L 9.3125,-2.953125 C 9.1875,-2.453125 9.1875,-2.40625 8.875,-2 8.578125,-1.59375 7.609375,-0.25 6.046875,-0.25 4.65625,-0.25 4.21875,-1.265625 4.21875,-2.421875 c 0,-0.71875 0.21875,-1.59375 0.3125,-2.015625 l 1.125,-4.453125 c 0.125,-0.484375 0.3125,-1.265625 0.3125,-1.421875 0,-0.390625 -0.3125,-0.609375 -0.640625,-0.609375 -0.21875,0 -0.765625,0.0625 -0.96875,0.859375 L 0.765625,4.28125 C 0.75,4.40625 0.6875,4.5625 0.6875,4.703125 c 0,0.375 0.296875,0.625 0.671875,0.625 0.71875,0 0.875,-0.5625 1.046875,-1.265625 z m 0,0"
           id="path6026" />
      </g>
      <g
         id="g7929">
        <path
           d="M 9.640625,21.1875 5.28125,11.546875 C 5.109375,11.15625 4.984375,11.15625 4.90625,11.15625 c -0.03125,0 -0.140625,0 -0.421875,0.1875 L 2.125,13.140625 c -0.3125,0.234375 -0.3125,0.3125 -0.3125,0.390625 0,0.125 0.078125,0.265625 0.25,0.265625 0.140625,0 0.5625,-0.34375 0.84375,-0.53125 0.140625,-0.125 0.515625,-0.40625 0.78125,-0.609375 l 4.890625,10.734375 c 0.171875,0.40625 0.296875,0.40625 0.515625,0.40625 0.375,0 0.453125,-0.15625 0.625,-0.5 L 20.96875,0 c 0.171875,-0.34375 0.171875,-0.453125 0.171875,-0.5 0,-0.25 -0.203125,-0.484375 -0.5,-0.484375 -0.203125,0 -0.375,0.109375 -0.5625,0.515625 z m 0,0"
           id="path1936" />
      </g>
    </g>
    <g
       id="g8600">
      <g
         id="g5726">
        <path
           d="m 1.28125,-16.921875 v 0.640625 c 1.71875,0 1.984375,0 1.984375,1.109375 v 13.40625 c 0,1.125 -0.265625,1.125 -1.984375,1.125 V 0 h 7.890625 c 3.984375,0 7.1875,-3.671875 7.1875,-8.328125 0,-4.6875 -3.15625,-8.59375 -7.1875,-8.59375 z m 4.609375,16.28125 c -0.984375,0 -1.03125,-0.125 -1.03125,-0.96875 V -15.3125 c 0,-0.84375 0.046875,-0.96875 1.03125,-0.96875 h 2.78125 c 2.0625,0 5.84375,1.21875 5.84375,7.953125 0,3.5 -1.015625,4.90625 -1.484375,5.578125 -0.59375,0.765625 -2,2.109375 -4.359375,2.109375 z m 0,0"
           id="path1852" />
      </g>
      <g
         id="g4826">
        <path
           d="m 16.671875,-8.421875 c 0,-5.078125 -3.640625,-8.90625 -7.75,-8.90625 -4.21875,0 -7.78125,3.875 -7.78125,8.90625 0,5.03125 3.625,8.8125 7.75,8.8125 4.25,0 7.78125,-3.859375 7.78125,-8.8125 z m -7.75,8.375 c -2.828125,0 -5.90625,-2.828125 -5.90625,-8.703125 0,-5.84375 3.375,-8.125 5.875,-8.125 2.625,0 5.90625,2.359375 5.90625,8.125 0,5.96875 -3.15625,8.703125 -5.875,8.703125 z m 0,0"
           id="path7421" />
      </g>
      <g
         id="g4432">
        <path
           d="m 9.6875,-9.3125 c -0.46875,0 -0.6875,0 -1.03125,0.296875 C 8.5,-8.890625 8.234375,-8.53125 8.234375,-8.125 c 0,0.5 0.359375,0.796875 0.828125,0.796875 0.609375,0 1.265625,-0.5 1.265625,-1.5 0,-1.1875 -1.140625,-2.09375 -2.84375,-2.09375 -3.25,0 -6.5,3.53125 -6.5,7.0625 0,2.15625 1.34375,4.109375 3.875,4.109375 3.375,0 5.5,-2.625 5.5,-2.953125 0,-0.140625 -0.15625,-0.265625 -0.25,-0.265625 -0.07813,0 -0.09375,0.015625 -0.328125,0.25 C 8.203125,-0.625 5.84375,-0.25 4.90625,-0.25 c -1.703125,0 -2.25,-1.484375 -2.25,-2.71875 0,-0.875 0.421875,-3.28125 1.3125,-4.96875 0.640625,-1.15625 1.984375,-2.5 3.546875,-2.5 0.3125,0 1.671875,0.04687 2.171875,1.125 z m 0,0"
           id="path9051" />
      </g>
      <g
         id="g7738">
        <path
           d="M 7.21875,-5.625 C 7.578125,-5.625 8,-5.625 8,-6.015625 8,-6.34375 7.75,-6.34375 7.3125,-6.34375 H 3.296875 c 0.625,-2.25 2.078125,-3.625 4.28125,-3.625 h 0.71875 c 0.421875,0 0.796875,0 0.796875,-0.390625 0,-0.328125 -0.265625,-0.328125 -0.71875,-0.328125 H 7.53125 c -3.046875,0 -6.390625,2.4375 -6.390625,6.328125 0,2.75 1.859375,4.609375 4.3125,4.609375 1.578125,0 3.140625,-1 3.140625,-1.234375 0,-0.15625 -0.0625,-0.296875 -0.21875,-0.296875 -0.078125,0 -0.125,0.015625 -0.25,0.109375 C 7.1875,-0.546875 6.265625,-0.25 5.53125,-0.25 c -1.3125,0 -2.703125,-0.859375 -2.703125,-3.265625 0,-0.46875 0.046875,-1.125 0.265625,-2.109375 z m 0,0"
           id="path9683" />
      </g>
      <g
         id="g813">
        <path
           d="M 3.5625,-0.546875 C 4.1875,0.03125 5.109375,0.25 5.953125,0.25 7.53125,0.25 8.625,-0.8125 9.1875,-1.59375 9.4375,-0.265625 10.484375,0.25 11.34375,0.25 c 0.75,0 1.34375,-0.453125 1.796875,-1.34375 C 13.53125,-1.9375 13.875,-3.4375 13.875,-3.546875 c 0,-0.125 -0.09375,-0.21875 -0.25,-0.21875 -0.21875,0 -0.25,0.125 -0.34375,0.5 C 12.90625,-1.8125 12.4375,-0.25 11.421875,-0.25 c -0.71875,0 -0.765625,-0.640625 -0.765625,-1.140625 0,-0.5625 0.21875,-1.453125 0.390625,-2.203125 L 11.75,-6.265625 c 0.09375,-0.46875 0.375,-1.59375 0.484375,-2.03125 0.15625,-0.59375 0.421875,-1.671875 0.421875,-1.765625 0,-0.375 -0.296875,-0.625 -0.65625,-0.625 -0.234375,0 -0.75,0.109375 -0.953125,0.84375 L 9.3125,-2.953125 C 9.1875,-2.453125 9.1875,-2.40625 8.875,-2 8.578125,-1.59375 7.609375,-0.25 6.046875,-0.25 4.65625,-0.25 4.21875,-1.265625 4.21875,-2.421875 c 0,-0.71875 0.21875,-1.59375 0.3125,-2.015625 l 1.125,-4.453125 c 0.125,-0.484375 0.3125,-1.265625 0.3125,-1.421875 0,-0.390625 -0.3125,-0.609375 -0.640625,-0.609375 -0.21875,0 -0.765625,0.0625 -0.96875,0.859375 L 0.765625,4.28125 C 0.75,4.40625 0.6875,4.5625 0.6875,4.703125 c 0,0.375 0.296875,0.625 0.671875,0.625 0.71875,0 0.875,-0.5625 1.046875,-1.265625 z m 0,0"
           id="path7942" />
      </g>
      <g
         id="g9633">
        <path
           d="M 9.640625,21.1875 5.28125,11.546875 C 5.109375,11.15625 4.984375,11.15625 4.90625,11.15625 c -0.03125,0 -0.140625,0 -0.421875,0.1875 L 2.125,13.140625 c -0.3125,0.234375 -0.3125,0.3125 -0.3125,0.390625 0,0.125 0.078125,0.265625 0.25,0.265625 0.140625,0 0.5625,-0.34375 0.84375,-0.53125 0.140625,-0.125 0.515625,-0.40625 0.78125,-0.609375 l 4.890625,10.734375 c 0.171875,0.40625 0.296875,0.40625 0.515625,0.40625 0.375,0 0.453125,-0.15625 0.625,-0.5 L 20.96875,0 c 0.171875,-0.34375 0.171875,-0.453125 0.171875,-0.5 0,-0.25 -0.203125,-0.484375 -0.5,-0.484375 -0.203125,0 -0.375,0.109375 -0.5625,0.515625 z m 0,0"
           id="path3488" />
      </g>
    </g>
    <g
       id="g2023">
      <g
         id="g6232">
        <path
           d="m 1.28125,-16.921875 v 0.640625 c 1.71875,0 1.984375,0 1.984375,1.109375 v 13.40625 c 0,1.125 -0.265625,1.125 -1.984375,1.125 V 0 h 7.890625 c 3.984375,0 7.1875,-3.671875 7.1875,-8.328125 0,-4.6875 -3.15625,-8.59375 -7.1875,-8.59375 z m 4.609375,16.28125 c -0.984375,0 -1.03125,-0.125 -1.03125,-0.96875 V -15.3125 c 0,-0.84375 0.046875,-0.96875 1.03125,-0.96875 h 2.78125 c 2.0625,0 5.84375,1.21875 5.84375,7.953125 0,3.5 -1.015625,4.90625 -1.484375,5.578125 -0.59375,0.765625 -2,2.109375 -4.359375,2.109375 z m 0,0"
           id="path2083" />
      </g>
      <g
         id="g318">
        <path
           d="m 16.671875,-8.421875 c 0,-5.078125 -3.640625,-8.90625 -7.75,-8.90625 -4.21875,0 -7.78125,3.875 -7.78125,8.90625 0,5.03125 3.625,8.8125 7.75,8.8125 4.25,0 7.78125,-3.859375 7.78125,-8.8125 z m -7.75,8.375 c -2.828125,0 -5.90625,-2.828125 -5.90625,-8.703125 0,-5.84375 3.375,-8.125 5.875,-8.125 2.625,0 5.90625,2.359375 5.90625,8.125 0,5.96875 -3.15625,8.703125 -5.875,8.703125 z m 0,0"
           id="path9604" />
      </g>
      <g
         id="g2405">
        <path
           d="m 9.6875,-9.3125 c -0.46875,0 -0.6875,0 -1.03125,0.296875 C 8.5,-8.890625 8.234375,-8.53125 8.234375,-8.125 c 0,0.5 0.359375,0.796875 0.828125,0.796875 0.609375,0 1.265625,-0.5 1.265625,-1.5 0,-1.1875 -1.140625,-2.09375 -2.84375,-2.09375 -3.25,0 -6.5,3.53125 -6.5,7.0625 0,2.15625 1.34375,4.109375 3.875,4.109375 3.375,0 5.5,-2.625 5.5,-2.953125 0,-0.140625 -0.15625,-0.265625 -0.25,-0.265625 -0.07813,0 -0.09375,0.015625 -0.328125,0.25 C 8.203125,-0.625 5.84375,-0.25 4.90625,-0.25 c -1.703125,0 -2.25,-1.484375 -2.25,-2.71875 0,-0.875 0.421875,-3.28125 1.3125,-4.96875 0.640625,-1.15625 1.984375,-2.5 3.546875,-2.5 0.3125,0 1.671875,0.04687 2.171875,1.125 z m 0,0"
           id="path9454" />
      </g>
      <g
         id="g8182">
        <path
           d="M 7.21875,-5.625 C 7.578125,-5.625 8,-5.625 8,-6.015625 8,-6.34375 7.75,-6.34375 7.3125,-6.34375 H 3.296875 c 0.625,-2.25 2.078125,-3.625 4.28125,-3.625 h 0.71875 c 0.421875,0 0.796875,0 0.796875,-0.390625 0,-0.328125 -0.265625,-0.328125 -0.71875,-0.328125 H 7.53125 c -3.046875,0 -6.390625,2.4375 -6.390625,6.328125 0,2.75 1.859375,4.609375 4.3125,4.609375 1.578125,0 3.140625,-1 3.140625,-1.234375 0,-0.15625 -0.0625,-0.296875 -0.21875,-0.296875 -0.078125,0 -0.125,0.015625 -0.25,0.109375 C 7.1875,-0.546875 6.265625,-0.25 5.53125,-0.25 c -1.3125,0 -2.703125,-0.859375 -2.703125,-3.265625 0,-0.46875 0.046875,-1.125 0.265625,-2.109375 z m 0,0"
           id="path3107" />
      </g>
      <g
         id="g5451">
        <path
           d="M 3.5625,-0.546875 C 4.1875,0.03125 5.109375,0.25 5.953125,0.25 7.53125,0.25 8.625,-0.8125 9.1875,-1.59375 9.4375,-0.265625 10.484375,0.25 11.34375,0.25 c 0.75,0 1.34375,-0.453125 1.796875,-1.34375 C 13.53125,-1.9375 13.875,-3.4375 13.875,-3.546875 c 0,-0.125 -0.09375,-0.21875 -0.25,-0.21875 -0.21875,0 -0.25,0.125 -0.34375,0.5 C 12.90625,-1.8125 12.4375,-0.25 11.421875,-0.25 c -0.71875,0 -0.765625,-0.640625 -0.765625,-1.140625 0,-0.5625 0.21875,-1.453125 0.390625,-2.203125 L 11.75,-6.265625 c 0.09375,-0.46875 0.375,-1.59375 0.484375,-2.03125 0.15625,-0.59375 0.421875,-1.671875 0.421875,-1.765625 0,-0.375 -0.296875,-0.625 -0.65625,-0.625 -0.234375,0 -0.75,0.109375 -0.953125,0.84375 L 9.3125,-2.953125 C 9.1875,-2.453125 9.1875,-2.40625 8.875,-2 8.578125,-1.59375 7.609375,-0.25 6.046875,-0.25 4.65625,-0.25 4.21875,-1.265625 4.21875,-2.421875 c 0,-0.71875 0.21875,-1.59375 0.3125,-2.015625 l 1.125,-4.453125 c 0.125,-0.484375 0.3125,-1.265625 0.3125,-1.421875 0,-0.390625 -0.3125,-0.609375 -0.640625,-0.609375 -0.21875,0 -0.765625,0.0625 -0.96875,0.859375 L 0.765625,4.28125 C 0.75,4.40625 0.6875,4.5625 0.6875,4.703125 c 0,0.375 0.296875,0.625 0.671875,0.625 0.71875,0 0.875,-0.5625 1.046875,-1.265625 z m 0,0"
           id="path8493" />
      </g>
      <g
         id="g6671">
        <path
           d="M 9.640625,21.1875 5.28125,11.546875 C 5.109375,11.15625 4.984375,11.15625 4.90625,11.15625 c -0.03125,0 -0.140625,0 -0.421875,0.1875 L 2.125,13.140625 c -0.3125,0.234375 -0.3125,0.3125 -0.3125,0.390625 0,0.125 0.078125,0.265625 0.25,0.265625 0.140625,0 0.5625,-0.34375 0.84375,-0.53125 0.140625,-0.125 0.515625,-0.40625 0.78125,-0.609375 l 4.890625,10.734375 c 0.171875,0.40625 0.296875,0.40625 0.515625,0.40625 0.375,0 0.453125,-0.15625 0.625,-0.5 L 20.96875,0 c 0.171875,-0.34375 0.171875,-0.453125 0.171875,-0.5 0,-0.25 -0.203125,-0.484375 -0.5,-0.484375 -0.203125,0 -0.375,0.109375 -0.5625,0.515625 z m 0,0"
           id="path5832" />
      </g>
    </g>
    <g
       id="g8753">
      <g
         id="g7439">
        <path
           d="m 6.4375,-10.796875 c -3.171875,0.765625 -5.453125,4.0625 -5.453125,6.953125 0,2.65625 1.796875,4.140625 3.78125,4.140625 2.921875,0 4.90625,-4.015625 4.90625,-7.3125 C 9.671875,-9.25 8.625,-10.609375 8,-11.421875 7.09375,-12.59375 5.59375,-14.5 5.59375,-15.6875 c 0,-0.421875 0.328125,-1.15625 1.421875,-1.15625 0.765625,0 1.234375,0.265625 1.984375,0.6875 0.21875,0.140625 0.78125,0.46875 1.109375,0.46875 C 10.625,-15.6875 11,-16.203125 11,-16.609375 c 0,-0.46875 -0.375,-0.546875 -1.234375,-0.734375 -1.171875,-0.25 -1.515625,-0.25 -1.9375,-0.25 -0.421875,0 -2.84375,0 -2.84375,2.53125 0,1.203125 0.609375,2.625 1.453125,4.265625 z m 0.28125,0.46875 c 0.9375,1.953125 1.3125,2.703125 1.3125,4.3125 0,1.921875 -1.046875,5.8125 -3.25,5.8125 -0.96875,0 -2.359375,-0.640625 -2.359375,-2.9375 0,-1.625 0.921875,-6.296875 4.296875,-7.1875 z m 0,0"
           id="path1843" />
      </g>
      <g
         id="g9603">
        <path
           d="m 9.6875,-9.3125 c -0.46875,0 -0.6875,0 -1.03125,0.296875 C 8.5,-8.890625 8.234375,-8.53125 8.234375,-8.125 c 0,0.5 0.359375,0.796875 0.828125,0.796875 0.609375,0 1.265625,-0.5 1.265625,-1.5 0,-1.1875 -1.140625,-2.09375 -2.84375,-2.09375 -3.25,0 -6.5,3.53125 -6.5,7.0625 0,2.15625 1.34375,4.109375 3.875,4.109375 3.375,0 5.5,-2.625 5.5,-2.953125 0,-0.140625 -0.15625,-0.265625 -0.25,-0.265625 -0.07813,0 -0.09375,0.015625 -0.328125,0.25 C 8.203125,-0.625 5.84375,-0.25 4.90625,-0.25 c -1.703125,0 -2.25,-1.484375 -2.25,-2.71875 0,-0.875 0.421875,-3.28125 1.3125,-4.96875 0.640625,-1.15625 1.984375,-2.5 3.546875,-2.5 0.3125,0 1.671875,0.04687 2.171875,1.125 z m 0,0"
           id="path2403" />
      </g>
      <g
         id="g6311">
        <path
           d="M 7.21875,-5.625 C 7.578125,-5.625 8,-5.625 8,-6.015625 8,-6.34375 7.75,-6.34375 7.3125,-6.34375 H 3.296875 c 0.625,-2.25 2.078125,-3.625 4.28125,-3.625 h 0.71875 c 0.421875,0 0.796875,0 0.796875,-0.390625 0,-0.328125 -0.265625,-0.328125 -0.71875,-0.328125 H 7.53125 c -3.046875,0 -6.390625,2.4375 -6.390625,6.328125 0,2.75 1.859375,4.609375 4.3125,4.609375 1.578125,0 3.140625,-1 3.140625,-1.234375 0,-0.15625 -0.0625,-0.296875 -0.21875,-0.296875 -0.078125,0 -0.125,0.015625 -0.25,0.109375 C 7.1875,-0.546875 6.265625,-0.25 5.53125,-0.25 c -1.3125,0 -2.703125,-0.859375 -2.703125,-3.265625 0,-0.46875 0.046875,-1.125 0.265625,-2.109375 z m 0,0"
           id="path4553" />
      </g>
      <g
         id="g9414">
        <path
           d="M 3.5625,-0.546875 C 4.1875,0.03125 5.109375,0.25 5.953125,0.25 7.53125,0.25 8.625,-0.8125 9.1875,-1.59375 9.4375,-0.265625 10.484375,0.25 11.34375,0.25 c 0.75,0 1.34375,-0.453125 1.796875,-1.34375 C 13.53125,-1.9375 13.875,-3.4375 13.875,-3.546875 c 0,-0.125 -0.09375,-0.21875 -0.25,-0.21875 -0.21875,0 -0.25,0.125 -0.34375,0.5 C 12.90625,-1.8125 12.4375,-0.25 11.421875,-0.25 c -0.71875,0 -0.765625,-0.640625 -0.765625,-1.140625 0,-0.5625 0.21875,-1.453125 0.390625,-2.203125 L 11.75,-6.265625 c 0.09375,-0.46875 0.375,-1.59375 0.484375,-2.03125 0.15625,-0.59375 0.421875,-1.671875 0.421875,-1.765625 0,-0.375 -0.296875,-0.625 -0.65625,-0.625 -0.234375,0 -0.75,0.109375 -0.953125,0.84375 L 9.3125,-2.953125 C 9.1875,-2.453125 9.1875,-2.40625 8.875,-2 8.578125,-1.59375 7.609375,-0.25 6.046875,-0.25 4.65625,-0.25 4.21875,-1.265625 4.21875,-2.421875 c 0,-0.71875 0.21875,-1.59375 0.3125,-2.015625 l 1.125,-4.453125 c 0.125,-0.484375 0.3125,-1.265625 0.3125,-1.421875 0,-0.390625 -0.3125,-0.609375 -0.640625,-0.609375 -0.21875,0 -0.765625,0.0625 -0.96875,0.859375 L 0.765625,4.28125 C 0.75,4.40625 0.6875,4.5625 0.6875,4.703125 c 0,0.375 0.296875,0.625 0.671875,0.625 0.71875,0 0.875,-0.5625 1.046875,-1.265625 z m 0,0"
           id="path2121" />
      </g>
      <g
         id="g5885">
        <path
           d="M 9.640625,21.1875 5.28125,11.546875 C 5.109375,11.15625 4.984375,11.15625 4.90625,11.15625 c -0.03125,0 -0.140625,0 -0.421875,0.1875 L 2.125,13.140625 c -0.3125,0.234375 -0.3125,0.3125 -0.3125,0.390625 0,0.125 0.078125,0.265625 0.25,0.265625 0.140625,0 0.5625,-0.34375 0.84375,-0.53125 0.140625,-0.125 0.515625,-0.40625 0.78125,-0.609375 l 4.890625,10.734375 c 0.171875,0.40625 0.296875,0.40625 0.515625,0.40625 0.375,0 0.453125,-0.15625 0.625,-0.5 L 20.96875,0 c 0.171875,-0.34375 0.171875,-0.453125 0.171875,-0.5 0,-0.25 -0.203125,-0.484375 -0.5,-0.484375 -0.203125,0 -0.375,0.109375 -0.5625,0.515625 z m 0,0"
           id="path805" />
      </g>
    </g>
    <g
       id="g9449">
      <g
         id="g436">
        <path
           d="m 6.4375,-10.796875 c -3.171875,0.765625 -5.453125,4.0625 -5.453125,6.953125 0,2.65625 1.796875,4.140625 3.78125,4.140625 2.921875,0 4.90625,-4.015625 4.90625,-7.3125 C 9.671875,-9.25 8.625,-10.609375 8,-11.421875 7.09375,-12.59375 5.59375,-14.5 5.59375,-15.6875 c 0,-0.421875 0.328125,-1.15625 1.421875,-1.15625 0.765625,0 1.234375,0.265625 1.984375,0.6875 0.21875,0.140625 0.78125,0.46875 1.109375,0.46875 C 10.625,-15.6875 11,-16.203125 11,-16.609375 c 0,-0.46875 -0.375,-0.546875 -1.234375,-0.734375 -1.171875,-0.25 -1.515625,-0.25 -1.9375,-0.25 -0.421875,0 -2.84375,0 -2.84375,2.53125 0,1.203125 0.609375,2.625 1.453125,4.265625 z m 0.28125,0.46875 c 0.9375,1.953125 1.3125,2.703125 1.3125,4.3125 0,1.921875 -1.046875,5.8125 -3.25,5.8125 -0.96875,0 -2.359375,-0.640625 -2.359375,-2.9375 0,-1.625 0.921875,-6.296875 4.296875,-7.1875 z m 0,0"
           id="path6988" />
      </g>
      <g
         id="g5200">
        <path
           d="m 9.6875,-9.3125 c -0.46875,0 -0.6875,0 -1.03125,0.296875 C 8.5,-8.890625 8.234375,-8.53125 8.234375,-8.125 c 0,0.5 0.359375,0.796875 0.828125,0.796875 0.609375,0 1.265625,-0.5 1.265625,-1.5 0,-1.1875 -1.140625,-2.09375 -2.84375,-2.09375 -3.25,0 -6.5,3.53125 -6.5,7.0625 0,2.15625 1.34375,4.109375 3.875,4.109375 3.375,0 5.5,-2.625 5.5,-2.953125 0,-0.140625 -0.15625,-0.265625 -0.25,-0.265625 -0.07813,0 -0.09375,0.015625 -0.328125,0.25 C 8.203125,-0.625 5.84375,-0.25 4.90625,-0.25 c -1.703125,0 -2.25,-1.484375 -2.25,-2.71875 0,-0.875 0.421875,-3.28125 1.3125,-4.96875 0.640625,-1.15625 1.984375,-2.5 3.546875,-2.5 0.3125,0 1.671875,0.04687 2.171875,1.125 z m 0,0"
           id="path5039" />
      </g>
      <g
         id="g9071">
        <path
           d="M 7.21875,-5.625 C 7.578125,-5.625 8,-5.625 8,-6.015625 8,-6.34375 7.75,-6.34375 7.3125,-6.34375 H 3.296875 c 0.625,-2.25 2.078125,-3.625 4.28125,-3.625 h 0.71875 c 0.421875,0 0.796875,0 0.796875,-0.390625 0,-0.328125 -0.265625,-0.328125 -0.71875,-0.328125 H 7.53125 c -3.046875,0 -6.390625,2.4375 -6.390625,6.328125 0,2.75 1.859375,4.609375 4.3125,4.609375 1.578125,0 3.140625,-1 3.140625,-1.234375 0,-0.15625 -0.0625,-0.296875 -0.21875,-0.296875 -0.078125,0 -0.125,0.015625 -0.25,0.109375 C 7.1875,-0.546875 6.265625,-0.25 5.53125,-0.25 c -1.3125,0 -2.703125,-0.859375 -2.703125,-3.265625 0,-0.46875 0.046875,-1.125 0.265625,-2.109375 z m 0,0"
           id="path825" />
      </g>
      <g
         id="g9322">
        <path
           d="M 3.5625,-0.546875 C 4.1875,0.03125 5.109375,0.25 5.953125,0.25 7.53125,0.25 8.625,-0.8125 9.1875,-1.59375 9.4375,-0.265625 10.484375,0.25 11.34375,0.25 c 0.75,0 1.34375,-0.453125 1.796875,-1.34375 C 13.53125,-1.9375 13.875,-3.4375 13.875,-3.546875 c 0,-0.125 -0.09375,-0.21875 -0.25,-0.21875 -0.21875,0 -0.25,0.125 -0.34375,0.5 C 12.90625,-1.8125 12.4375,-0.25 11.421875,-0.25 c -0.71875,0 -0.765625,-0.640625 -0.765625,-1.140625 0,-0.5625 0.21875,-1.453125 0.390625,-2.203125 L 11.75,-6.265625 c 0.09375,-0.46875 0.375,-1.59375 0.484375,-2.03125 0.15625,-0.59375 0.421875,-1.671875 0.421875,-1.765625 0,-0.375 -0.296875,-0.625 -0.65625,-0.625 -0.234375,0 -0.75,0.109375 -0.953125,0.84375 L 9.3125,-2.953125 C 9.1875,-2.453125 9.1875,-2.40625 8.875,-2 8.578125,-1.59375 7.609375,-0.25 6.046875,-0.25 4.65625,-0.25 4.21875,-1.265625 4.21875,-2.421875 c 0,-0.71875 0.21875,-1.59375 0.3125,-2.015625 l 1.125,-4.453125 c 0.125,-0.484375 0.3125,-1.265625 0.3125,-1.421875 0,-0.390625 -0.3125,-0.609375 -0.640625,-0.609375 -0.21875,0 -0.765625,0.0625 -0.96875,0.859375 L 0.765625,4.28125 C 0.75,4.40625 0.6875,4.5625 0.6875,4.703125 c 0,0.375 0.296875,0.625 0.671875,0.625 0.71875,0 0.875,-0.5625 1.046875,-1.265625 z m 0,0"
           id="path5547" />
      </g>
      <g
         id="g2020">
        <path
           d="m 4.765625,-6.1875 c 0,-0.71875 -0.609375,-1.328125 -1.328125,-1.328125 -0.71875,0 -1.3125,0.609375 -1.3125,1.328125 0,0.703125 0.59375,1.3125 1.3125,1.3125 0.71875,0 1.328125,-0.609375 1.328125,-1.3125 z m 0,0"
           id="path575" />
      </g>
      <g
         id="g1370">
        <path
           d="M 9.640625,21.1875 5.28125,11.546875 C 5.109375,11.15625 4.984375,11.15625 4.90625,11.15625 c -0.03125,0 -0.140625,0 -0.421875,0.1875 L 2.125,13.140625 c -0.3125,0.234375 -0.3125,0.3125 -0.3125,0.390625 0,0.125 0.078125,0.265625 0.25,0.265625 0.140625,0 0.5625,-0.34375 0.84375,-0.53125 0.140625,-0.125 0.515625,-0.40625 0.78125,-0.609375 l 4.890625,10.734375 c 0.171875,0.40625 0.296875,0.40625 0.515625,0.40625 0.375,0 0.453125,-0.15625 0.625,-0.5 L 20.96875,0 c 0.171875,-0.34375 0.171875,-0.453125 0.171875,-0.5 0,-0.25 -0.203125,-0.484375 -0.5,-0.484375 -0.203125,0 -0.375,0.109375 -0.5625,0.515625 z m 0,0"
           id="path1139" />
      </g>
    </g>
    <g
       id="g5917">
      <g
         id="g4998">
        <path
           d="m 10.0625,-17.09375 c -0.203125,-0.421875 -0.296875,-0.421875 -0.5,-0.421875 -0.296875,0 -0.3125,0.04687 -0.5,0.390625 L 1.046875,-0.421875 C 1.015625,-0.375 0.921875,-0.15625 0.921875,-0.125 0.921875,-0.03125 0.9375,0 1.390625,0 H 17.71875 c 0.453125,0 0.46875,-0.03125 0.46875,-0.125 0,-0.03125 -0.09375,-0.25 -0.125,-0.296875 z m -1.109375,1.453125 6.859375,14.25 h -13.75 z m 0,0"
           id="path2842" />
      </g>
      <g
         id="g7581">
        <path
           d="m 9.6875,-9.3125 c -0.46875,0 -0.6875,0 -1.03125,0.296875 C 8.5,-8.890625 8.234375,-8.53125 8.234375,-8.125 c 0,0.5 0.359375,0.796875 0.828125,0.796875 0.609375,0 1.265625,-0.5 1.265625,-1.5 0,-1.1875 -1.140625,-2.09375 -2.84375,-2.09375 -3.25,0 -6.5,3.53125 -6.5,7.0625 0,2.15625 1.34375,4.109375 3.875,4.109375 3.375,0 5.5,-2.625 5.5,-2.953125 0,-0.140625 -0.15625,-0.265625 -0.25,-0.265625 -0.07813,0 -0.09375,0.015625 -0.328125,0.25 C 8.203125,-0.625 5.84375,-0.25 4.90625,-0.25 c -1.703125,0 -2.25,-1.484375 -2.25,-2.71875 0,-0.875 0.421875,-3.28125 1.3125,-4.96875 0.640625,-1.15625 1.984375,-2.5 3.546875,-2.5 0.3125,0 1.671875,0.04687 2.171875,1.125 z m 0,0"
           id="path284" />
      </g>
      <g
         id="g5458">
        <path
           d="M 7.21875,-5.625 C 7.578125,-5.625 8,-5.625 8,-6.015625 8,-6.34375 7.75,-6.34375 7.3125,-6.34375 H 3.296875 c 0.625,-2.25 2.078125,-3.625 4.28125,-3.625 h 0.71875 c 0.421875,0 0.796875,0 0.796875,-0.390625 0,-0.328125 -0.265625,-0.328125 -0.71875,-0.328125 H 7.53125 c -3.046875,0 -6.390625,2.4375 -6.390625,6.328125 0,2.75 1.859375,4.609375 4.3125,4.609375 1.578125,0 3.140625,-1 3.140625,-1.234375 0,-0.15625 -0.0625,-0.296875 -0.21875,-0.296875 -0.078125,0 -0.125,0.015625 -0.25,0.109375 C 7.1875,-0.546875 6.265625,-0.25 5.53125,-0.25 c -1.3125,0 -2.703125,-0.859375 -2.703125,-3.265625 0,-0.46875 0.046875,-1.125 0.265625,-2.109375 z m 0,0"
           id="path735" />
      </g>
      <g
         id="g2894">
        <path
           d="M 3.5625,-0.546875 C 4.1875,0.03125 5.109375,0.25 5.953125,0.25 7.53125,0.25 8.625,-0.8125 9.1875,-1.59375 9.4375,-0.265625 10.484375,0.25 11.34375,0.25 c 0.75,0 1.34375,-0.453125 1.796875,-1.34375 C 13.53125,-1.9375 13.875,-3.4375 13.875,-3.546875 c 0,-0.125 -0.09375,-0.21875 -0.25,-0.21875 -0.21875,0 -0.25,0.125 -0.34375,0.5 C 12.90625,-1.8125 12.4375,-0.25 11.421875,-0.25 c -0.71875,0 -0.765625,-0.640625 -0.765625,-1.140625 0,-0.5625 0.21875,-1.453125 0.390625,-2.203125 L 11.75,-6.265625 c 0.09375,-0.46875 0.375,-1.59375 0.484375,-2.03125 0.15625,-0.59375 0.421875,-1.671875 0.421875,-1.765625 0,-0.375 -0.296875,-0.625 -0.65625,-0.625 -0.234375,0 -0.75,0.109375 -0.953125,0.84375 L 9.3125,-2.953125 C 9.1875,-2.453125 9.1875,-2.40625 8.875,-2 8.578125,-1.59375 7.609375,-0.25 6.046875,-0.25 4.65625,-0.25 4.21875,-1.265625 4.21875,-2.421875 c 0,-0.71875 0.21875,-1.59375 0.3125,-2.015625 l 1.125,-4.453125 c 0.125,-0.484375 0.3125,-1.265625 0.3125,-1.421875 0,-0.390625 -0.3125,-0.609375 -0.640625,-0.609375 -0.21875,0 -0.765625,0.0625 -0.96875,0.859375 L 0.765625,4.28125 C 0.75,4.40625 0.6875,4.5625 0.6875,4.703125 c 0,0.375 0.296875,0.625 0.671875,0.625 0.71875,0 0.875,-0.5625 1.046875,-1.265625 z m 0,0"
           id="path1847" />
      </g>
      <g
         id="g2433">
        <path
           d="M 9.640625,21.1875 5.28125,11.546875 C 5.109375,11.15625 4.984375,11.15625 4.90625,11.15625 c -0.03125,0 -0.140625,0 -0.421875,0.1875 L 2.125,13.140625 c -0.3125,0.234375 -0.3125,0.3125 -0.3125,0.390625 0,0.125 0.078125,0.265625 0.25,0.265625 0.140625,0 0.5625,-0.34375 0.84375,-0.53125 0.140625,-0.125 0.515625,-0.40625 0.78125,-0.609375 l 4.890625,10.734375 c 0.171875,0.40625 0.296875,0.40625 0.515625,0.40625 0.375,0 0.453125,-0.15625 0.625,-0.5 L 20.96875,0 c 0.171875,-0.34375 0.171875,-0.453125 0.171875,-0.5 0,-0.25 -0.203125,-0.484375 -0.5,-0.484375 -0.203125,0 -0.375,0.109375 -0.5625,0.515625 z m 0,0"
           id="path9680" />
      </g>
    </g>
    <g
       id="g7670">
      <g
         id="g6589">
        <path
           d="m 6.4375,-10.796875 c -3.171875,0.765625 -5.453125,4.0625 -5.453125,6.953125 0,2.65625 1.796875,4.140625 3.78125,4.140625 2.921875,0 4.90625,-4.015625 4.90625,-7.3125 C 9.671875,-9.25 8.625,-10.609375 8,-11.421875 7.09375,-12.59375 5.59375,-14.5 5.59375,-15.6875 c 0,-0.421875 0.328125,-1.15625 1.421875,-1.15625 0.765625,0 1.234375,0.265625 1.984375,0.6875 0.21875,0.140625 0.78125,0.46875 1.109375,0.46875 C 10.625,-15.6875 11,-16.203125 11,-16.609375 c 0,-0.46875 -0.375,-0.546875 -1.234375,-0.734375 -1.171875,-0.25 -1.515625,-0.25 -1.9375,-0.25 -0.421875,0 -2.84375,0 -2.84375,2.53125 0,1.203125 0.609375,2.625 1.453125,4.265625 z m 0.28125,0.46875 c 0.9375,1.953125 1.3125,2.703125 1.3125,4.3125 0,1.921875 -1.046875,5.8125 -3.25,5.8125 -0.96875,0 -2.359375,-0.640625 -2.359375,-2.9375 0,-1.625 0.921875,-6.296875 4.296875,-7.1875 z m 0,0"
           id="path1913" />
      </g>
      <g
         id="g8548">
        <path
           d="m 12.59375,-9.34375 c 0.3125,0 1.140625,0 1.140625,-0.796875 0,-0.546875 -0.46875,-0.546875 -0.921875,-0.546875 H 7.328125 c -3.703125,0 -6.390625,4.140625 -6.390625,7.0625 0,2.109375 1.359375,3.875 3.59375,3.875 2.921875,0 6.125,-3.15625 6.125,-6.859375 0,-0.96875 -0.21875,-1.921875 -0.8125,-2.734375 z M 4.5625,-0.25 c -1.265625,0 -2.1875,-0.96875 -2.1875,-2.671875 0,-1.484375 0.890625,-6.421875 4.53125,-6.421875 1.078125,0 2.265625,0.515625 2.265625,2.4375 0,0.859375 -0.40625,2.9375 -1.265625,4.375 C 7.015625,-1.0625 5.671875,-0.25 4.5625,-0.25 Z m 0,0"
           id="path3576" />
      </g>
      <g
         id="g7686">
        <path
           d="m 9.6875,-9.3125 c -0.46875,0 -0.6875,0 -1.03125,0.296875 C 8.5,-8.890625 8.234375,-8.53125 8.234375,-8.125 c 0,0.5 0.359375,0.796875 0.828125,0.796875 0.609375,0 1.265625,-0.5 1.265625,-1.5 0,-1.1875 -1.140625,-2.09375 -2.84375,-2.09375 -3.25,0 -6.5,3.53125 -6.5,7.0625 0,2.15625 1.34375,4.109375 3.875,4.109375 3.375,0 5.5,-2.625 5.5,-2.953125 0,-0.140625 -0.15625,-0.265625 -0.25,-0.265625 -0.07813,0 -0.09375,0.015625 -0.328125,0.25 C 8.203125,-0.625 5.84375,-0.25 4.90625,-0.25 c -1.703125,0 -2.25,-1.484375 -2.25,-2.71875 0,-0.875 0.421875,-3.28125 1.3125,-4.96875 0.640625,-1.15625 1.984375,-2.5 3.546875,-2.5 0.3125,0 1.671875,0.04687 2.171875,1.125 z m 0,0"
           id="path4712" />
      </g>
      <g
         id="g1393">
        <path
           d="M 7.21875,-5.625 C 7.578125,-5.625 8,-5.625 8,-6.015625 8,-6.34375 7.75,-6.34375 7.3125,-6.34375 H 3.296875 c 0.625,-2.25 2.078125,-3.625 4.28125,-3.625 h 0.71875 c 0.421875,0 0.796875,0 0.796875,-0.390625 0,-0.328125 -0.265625,-0.328125 -0.71875,-0.328125 H 7.53125 c -3.046875,0 -6.390625,2.4375 -6.390625,6.328125 0,2.75 1.859375,4.609375 4.3125,4.609375 1.578125,0 3.140625,-1 3.140625,-1.234375 0,-0.15625 -0.0625,-0.296875 -0.21875,-0.296875 -0.078125,0 -0.125,0.015625 -0.25,0.109375 C 7.1875,-0.546875 6.265625,-0.25 5.53125,-0.25 c -1.3125,0 -2.703125,-0.859375 -2.703125,-3.265625 0,-0.46875 0.046875,-1.125 0.265625,-2.109375 z m 0,0"
           id="path3501" />
      </g>
      <g
         id="g3318">
        <path
           d="M 3.5625,-0.546875 C 4.1875,0.03125 5.109375,0.25 5.953125,0.25 7.53125,0.25 8.625,-0.8125 9.1875,-1.59375 9.4375,-0.265625 10.484375,0.25 11.34375,0.25 c 0.75,0 1.34375,-0.453125 1.796875,-1.34375 C 13.53125,-1.9375 13.875,-3.4375 13.875,-3.546875 c 0,-0.125 -0.09375,-0.21875 -0.25,-0.21875 -0.21875,0 -0.25,0.125 -0.34375,0.5 C 12.90625,-1.8125 12.4375,-0.25 11.421875,-0.25 c -0.71875,0 -0.765625,-0.640625 -0.765625,-1.140625 0,-0.5625 0.21875,-1.453125 0.390625,-2.203125 L 11.75,-6.265625 c 0.09375,-0.46875 0.375,-1.59375 0.484375,-2.03125 0.15625,-0.59375 0.421875,-1.671875 0.421875,-1.765625 0,-0.375 -0.296875,-0.625 -0.65625,-0.625 -0.234375,0 -0.75,0.109375 -0.953125,0.84375 L 9.3125,-2.953125 C 9.1875,-2.453125 9.1875,-2.40625 8.875,-2 8.578125,-1.59375 7.609375,-0.25 6.046875,-0.25 4.65625,-0.25 4.21875,-1.265625 4.21875,-2.421875 c 0,-0.71875 0.21875,-1.59375 0.3125,-2.015625 l 1.125,-4.453125 c 0.125,-0.484375 0.3125,-1.265625 0.3125,-1.421875 0,-0.390625 -0.3125,-0.609375 -0.640625,-0.609375 -0.21875,0 -0.765625,0.0625 -0.96875,0.859375 L 0.765625,4.28125 C 0.75,4.40625 0.6875,4.5625 0.6875,4.703125 c 0,0.375 0.296875,0.625 0.671875,0.625 0.71875,0 0.875,-0.5625 1.046875,-1.265625 z m 0,0"
           id="path9217" />
      </g>
      <g
         id="g6521">
        <path
           d="M 9.640625,21.1875 5.28125,11.546875 C 5.109375,11.15625 4.984375,11.15625 4.90625,11.15625 c -0.03125,0 -0.140625,0 -0.421875,0.1875 L 2.125,13.140625 c -0.3125,0.234375 -0.3125,0.3125 -0.3125,0.390625 0,0.125 0.078125,0.265625 0.25,0.265625 0.140625,0 0.5625,-0.34375 0.84375,-0.53125 0.140625,-0.125 0.515625,-0.40625 0.78125,-0.609375 l 4.890625,10.734375 c 0.171875,0.40625 0.296875,0.40625 0.515625,0.40625 0.375,0 0.453125,-0.15625 0.625,-0.5 L 20.96875,0 c 0.171875,-0.34375 0.171875,-0.453125 0.171875,-0.5 0,-0.25 -0.203125,-0.484375 -0.5,-0.484375 -0.203125,0 -0.375,0.109375 -0.5625,0.515625 z m 0,0"
           id="path9436" />
      </g>
    </g>
    <g
       id="g3381">
      <g
         id="g7704">
        <path
           d="m 7.015625,-15.296875 c 0,-0.984375 0.640625,-2.578125 3.34375,-2.75 0.125,-0.01563 0.21875,-0.125 0.21875,-0.265625 0,-0.265625 -0.1875,-0.265625 -0.46875,-0.265625 -2.484375,0 -4.734375,1.25 -4.75,3.09375 v 5.640625 c 0,0.96875 0,1.765625 -1,2.578125 C 3.5,-6.546875 2.546875,-6.5 2,-6.46875 c -0.109375,0.03125 -0.21875,0.125 -0.21875,0.28125 0,0.234375 0.15625,0.234375 0.40625,0.265625 C 3.8125,-5.828125 5,-4.9375 5.28125,-3.71875 5.359375,-3.4375 5.359375,-3.390625 5.359375,-2.5 v 4.90625 c 0,1.03125 0,1.828125 1.1875,2.765625 0.96875,0.75 2.59375,1.015625 3.5625,1.015625 0.28125,0 0.46875,0 0.46875,-0.265625 0,-0.25 -0.140625,-0.25 -0.390625,-0.265625 C 8.625,5.546875 7.40625,4.765625 7.09375,3.5 7.015625,3.265625 7.015625,3.21875 7.015625,2.328125 V -2.875 c 0,-1.140625 -0.203125,-1.5625 -1,-2.359375 C 5.5,-5.75 4.78125,-6 4.09375,-6.1875 6.125,-6.765625 7.015625,-7.90625 7.015625,-9.34375 Z m 0,0"
           id="path5838" />
      </g>
      <g
         id="g6027">
        <path
           d="m 5.359375,2.90625 c 0,0.984375 -0.65625,2.578125 -3.359375,2.75 -0.109375,0.015625 -0.21875,0.125 -0.21875,0.265625 0,0.265625 0.28125,0.265625 0.5,0.265625 2.40625,0 4.703125,-1.203125 4.734375,-3.09375 v -5.640625 c 0,-0.96875 0,-1.765625 0.984375,-2.578125 0.875,-0.71875 1.8125,-0.765625 2.359375,-0.796875 0.125,-0.03125 0.21875,-0.125 0.21875,-0.265625 0,-0.25 -0.140625,-0.25 -0.390625,-0.28125 C 8.546875,-6.5625 7.359375,-7.453125 7.09375,-8.671875 7.015625,-8.953125 7.015625,-9 7.015625,-9.890625 v -4.90625 c 0,-1.03125 0,-1.828125 -1.1875,-2.765625 -1,-0.78125 -2.703125,-1.015625 -3.546875,-1.015625 -0.21875,0 -0.5,0 -0.5,0.265625 0,0.25 0.15625,0.25 0.40625,0.265625 1.546875,0.109375 2.765625,0.890625 3.09375,2.15625 0.078125,0.234375 0.078125,0.28125 0.078125,1.171875 v 5.203125 c 0,1.140625 0.1875,1.5625 0.984375,2.359375 0.515625,0.515625 1.234375,0.765625 1.9375,0.96875 C 6.25,-5.625 5.359375,-4.484375 5.359375,-3.046875 Z m 0,0"
           id="path5292" />
      </g>
      <g
         id="g7418">
        <path
           d="M 9.640625,21.1875 5.28125,11.546875 C 5.109375,11.15625 4.984375,11.15625 4.90625,11.15625 c -0.03125,0 -0.140625,0 -0.421875,0.1875 L 2.125,13.140625 c -0.3125,0.234375 -0.3125,0.3125 -0.3125,0.390625 0,0.125 0.078125,0.265625 0.25,0.265625 0.140625,0 0.5625,-0.34375 0.84375,-0.53125 0.140625,-0.125 0.515625,-0.40625 0.78125,-0.609375 l 4.890625,10.734375 c 0.171875,0.40625 0.296875,0.40625 0.515625,0.40625 0.375,0 0.453125,-0.15625 0.625,-0.5 L 20.96875,0 c 0.171875,-0.34375 0.171875,-0.453125 0.171875,-0.5 0,-0.25 -0.203125,-0.484375 -0.5,-0.484375 -0.203125,0 -0.375,0.109375 -0.5625,0.515625 z m 0,0"
           id="path4516" />
      </g>
      <g
         id="g1404">
        <path
           d="m 6.4375,-10.796875 c -3.171875,0.765625 -5.453125,4.0625 -5.453125,6.953125 0,2.65625 1.796875,4.140625 3.78125,4.140625 2.921875,0 4.90625,-4.015625 4.90625,-7.3125 C 9.671875,-9.25 8.625,-10.609375 8,-11.421875 7.09375,-12.59375 5.59375,-14.5 5.59375,-15.6875 c 0,-0.421875 0.328125,-1.15625 1.421875,-1.15625 0.765625,0 1.234375,0.265625 1.984375,0.6875 0.21875,0.140625 0.78125,0.46875 1.109375,0.46875 C 10.625,-15.6875 11,-16.203125 11,-16.609375 c 0,-0.46875 -0.375,-0.546875 -1.234375,-0.734375 -1.171875,-0.25 -1.515625,-0.25 -1.9375,-0.25 -0.421875,0 -2.84375,0 -2.84375,2.53125 0,1.203125 0.609375,2.625 1.453125,4.265625 z m 0.28125,0.46875 c 0.9375,1.953125 1.3125,2.703125 1.3125,4.3125 0,1.921875 -1.046875,5.8125 -3.25,5.8125 -0.96875,0 -2.359375,-0.640625 -2.359375,-2.9375 0,-1.625 0.921875,-6.296875 4.296875,-7.1875 z m 0,0"
           id="path8337" />
      </g>
      <g
         id="g677">
        <path
           d="m 12.59375,-9.34375 c 0.3125,0 1.140625,0 1.140625,-0.796875 0,-0.546875 -0.46875,-0.546875 -0.921875,-0.546875 H 7.328125 c -3.703125,0 -6.390625,4.140625 -6.390625,7.0625 0,2.109375 1.359375,3.875 3.59375,3.875 2.921875,0 6.125,-3.15625 6.125,-6.859375 0,-0.96875 -0.21875,-1.921875 -0.8125,-2.734375 z M 4.5625,-0.25 c -1.265625,0 -2.1875,-0.96875 -2.1875,-2.671875 0,-1.484375 0.890625,-6.421875 4.53125,-6.421875 1.078125,0 2.265625,0.515625 2.265625,2.4375 0,0.859375 -0.40625,2.9375 -1.265625,4.375 C 7.015625,-1.0625 5.671875,-0.25 4.5625,-0.25 Z m 0,0"
           id="path8282" />
      </g>
      <g
         id="g9936">
        <path
           d="m 9.6875,-9.3125 c -0.46875,0 -0.6875,0 -1.03125,0.296875 C 8.5,-8.890625 8.234375,-8.53125 8.234375,-8.125 c 0,0.5 0.359375,0.796875 0.828125,0.796875 0.609375,0 1.265625,-0.5 1.265625,-1.5 0,-1.1875 -1.140625,-2.09375 -2.84375,-2.09375 -3.25,0 -6.5,3.53125 -6.5,7.0625 0,2.15625 1.34375,4.109375 3.875,4.109375 3.375,0 5.5,-2.625 5.5,-2.953125 0,-0.140625 -0.15625,-0.265625 -0.25,-0.265625 -0.07813,0 -0.09375,0.015625 -0.328125,0.25 C 8.203125,-0.625 5.84375,-0.25 4.90625,-0.25 c -1.703125,0 -2.25,-1.484375 -2.25,-2.71875 0,-0.875 0.421875,-3.28125 1.3125,-4.96875 0.640625,-1.15625 1.984375,-2.5 3.546875,-2.5 0.3125,0 1.671875,0.04687 2.171875,1.125 z m 0,0"
           id="path5734" />
      </g>
      <g
         id="g6161">
        <path
           d="M 7.21875,-5.625 C 7.578125,-5.625 8,-5.625 8,-6.015625 8,-6.34375 7.75,-6.34375 7.3125,-6.34375 H 3.296875 c 0.625,-2.25 2.078125,-3.625 4.28125,-3.625 h 0.71875 c 0.421875,0 0.796875,0 0.796875,-0.390625 0,-0.328125 -0.265625,-0.328125 -0.71875,-0.328125 H 7.53125 c -3.046875,0 -6.390625,2.4375 -6.390625,6.328125 0,2.75 1.859375,4.609375 4.3125,4.609375 1.578125,0 3.140625,-1 3.140625,-1.234375 0,-0.15625 -0.0625,-0.296875 -0.21875,-0.296875 -0.078125,0 -0.125,0.015625 -0.25,0.109375 C 7.1875,-0.546875 6.265625,-0.25 5.53125,-0.25 c -1.3125,0 -2.703125,-0.859375 -2.703125,-3.265625 0,-0.46875 0.046875,-1.125 0.265625,-2.109375 z m 0,0"
           id="path4019" />
      </g>
      <g
         id="g8294">
        <path
           d="M 3.5625,-0.546875 C 4.1875,0.03125 5.109375,0.25 5.953125,0.25 7.53125,0.25 8.625,-0.8125 9.1875,-1.59375 9.4375,-0.265625 10.484375,0.25 11.34375,0.25 c 0.75,0 1.34375,-0.453125 1.796875,-1.34375 C 13.53125,-1.9375 13.875,-3.4375 13.875,-3.546875 c 0,-0.125 -0.09375,-0.21875 -0.25,-0.21875 -0.21875,0 -0.25,0.125 -0.34375,0.5 C 12.90625,-1.8125 12.4375,-0.25 11.421875,-0.25 c -0.71875,0 -0.765625,-0.640625 -0.765625,-1.140625 0,-0.5625 0.21875,-1.453125 0.390625,-2.203125 L 11.75,-6.265625 c 0.09375,-0.46875 0.375,-1.59375 0.484375,-2.03125 0.15625,-0.59375 0.421875,-1.671875 0.421875,-1.765625 0,-0.375 -0.296875,-0.625 -0.65625,-0.625 -0.234375,0 -0.75,0.109375 -0.953125,0.84375 L 9.3125,-2.953125 C 9.1875,-2.453125 9.1875,-2.40625 8.875,-2 8.578125,-1.59375 7.609375,-0.25 6.046875,-0.25 4.65625,-0.25 4.21875,-1.265625 4.21875,-2.421875 c 0,-0.71875 0.21875,-1.59375 0.3125,-2.015625 l 1.125,-4.453125 c 0.125,-0.484375 0.3125,-1.265625 0.3125,-1.421875 0,-0.390625 -0.3125,-0.609375 -0.640625,-0.609375 -0.21875,0 -0.765625,0.0625 -0.96875,0.859375 L 0.765625,4.28125 C 0.75,4.40625 0.6875,4.5625 0.6875,4.703125 c 0,0.375 0.296875,0.625 0.671875,0.625 0.71875,0 0.875,-0.5625 1.046875,-1.265625 z m 0,0"
           id="path7935" />
      </g>
    </g>
  </defs>
  <g
     inkscape:label="Layer 1"
     inkscape:groupmode="layer"
     id="layer1"
     transform="translate(-30.123358,-124.48776)">
    <text
       xml:space="preserve"
       style="font-style:normal;font-variant:normal;font-weight:normal;font-stretch:normal;font-size:8.46667px;font-family:'TeX Gyre Termes';-inkscape-font-specification:'TeX Gyre Termes';text-align:start;writing-mode:lr-tb;direction:ltr;text-anchor:start;fill:#000000;stroke-width:0.264583"
       x="29.556984"
       y="130.62279"
       id="text1"><tspan
         sodipodi:role="line"
         id="tspan1"
         style="font-style:normal;font-variant:normal;font-weight:bold;font-stretch:normal;font-family:Arimo;-inkscape-font-specification:Arimo;fill:#000000;stroke-width:0.264583"
         x="29.556984"
         y="130.62279"><tspan
           style="font-style:normal;font-variant:normal;font-weight:bold;font-stretch:normal;font-family:Arimo;-inkscape-font-specification:Arimo;fill:#ff7f2a"
           id="tspan4">EM</tspan><tspan
           id="tspan8"
           style="font-style:normal;font-variant:normal;font-weight:bold;font-stretch:normal;font-family:Arimo;-inkscape-font-specification:Arimo;fill:#0044aa">{DOC}</tspan></tspan></text>
    <text
       xml:space="preserve"
       style="font-size:8.46667px;text-align:start;writing-mode:lr-tb;direction:ltr;text-anchor:start;fill:#000000;stroke-width:0.264583"
       x="47.553371"
       y="133.66191"
       id="text2"><tspan
         sodipodi:role="line"
         id="tspan2"
         style="stroke-width:0.264583"
         x="47.553371"
         y="133.66191" /></text>
  </g>
</svg>
